<svg xmlns="http://www.w3.org/2000/svg" aria-hidden="true" style="position:absolute;width:0;height:0;overflow:hidden">
    <defs>
    <symbol id="icon-tel_desk" viewBox="0 0 32 32">
        <path d="m26.332 6.267-3.347-3.344a2.16 2.16 0 0 0-3.068 0l-3.605 3.598a2.167 2.167 0 0 0 0 3.074l2.816 2.819a12.745 12.745 0 0 1-2.715 4 12.75 12.75 0 0 1-3.998 2.721l-2.816-2.819a2.164 2.164 0 0 0-3.068-.001l-3.608 3.598a2.166 2.166 0 0 0-.638 1.537c0 .581.226 1.125.638 1.537l3.344 3.344a3.762 3.762 0 0 0 2.646 1.097c.204 0 .402-.016.603-.05 4.161-.685 8.291-2.9 11.625-6.232 3.331-3.337 5.544-7.466 6.235-11.63a3.743 3.743 0 0 0-1.047-3.249zM25.15 9.143c-.613 3.705-2.605 7.401-5.607 10.402s-6.694 4.993-10.4 5.606a1.477 1.477 0 0 1-1.282-.415l-3.284-3.284 3.482-3.485 3.793 3.799.679-.251a15.128 15.128 0 0 0 8.979-8.982l.251-.679-3.797-3.793 3.482-3.485L24.73 7.86c.339.339.497.817.418 1.282z"/>
    </symbol>
    <symbol id="icon-menu_close_icon" viewBox="0 0 32 32">
        <path stroke-linecap="round" stroke-linejoin="round" stroke-width="2.667" d="M24 8 8 24M8 8l16 16"/>
    </symbol>
    <symbol id="icon-close_black" viewBox="0 0 32 32">
        <path stroke-linecap="round" stroke-width="2.667" d="M26.667 5.333 5.334 26.666m21.333.001z"/>
    </symbol>
    <symbol id="icon-Burgerburger_menu" viewBox="0 0 32 32">
        <path d="M4 5.333h24V8H4V5.333zm8 9.334h16v2.667H12v-2.667zM4 24h24v2.667H4V24z"/>
    </symbol>
    <symbol id="icon-btn_arrow_white" viewBox="0 0 32 32">
        <path d="M30.032 27.48a1.164 1.164 0 0 0 1.269-1.951l-1.269 1.951zM1.161 6.334a1.164 1.164 0 0 0-.897 1.38l2.17 10.245a1.164 1.164 0 1 0 2.277-.483L2.782 8.369l9.107-1.929a1.164 1.164 0 1 0-.483-2.277L1.161 6.333zm30.14 19.195L2.037 6.496.768 8.447 30.032 27.48l1.269-1.951z"/>
    </symbol>
    <symbol id="icon-btn_circle_white" viewBox="0 0 32 32">
        <path d="M10.857 26.396c.086.063.159.134.22.214.06.079.099.152.119.218l-.186.091c-.022-.062-.058-.127-.108-.195s-.108-.127-.176-.176c-.087-.063-.158-.097-.214-.099a.143.143 0 0 0-.134.061c-.024.033-.03.066-.02.102s.031.072.064.109c.031.037.068.075.11.116.041.042.081.085.12.13a.78.78 0 0 1 .094.14c.024.049.035.1.032.152a.332.332 0 0 1-.07.17c-.045.062-.103.104-.172.125s-.145.021-.226-.001a.743.743 0 0 1-.258-.129 1.017 1.017 0 0 1-.186-.174.628.628 0 0 1-.122-.193l.188-.09c.024.065.057.122.099.171s.088.091.139.128c.082.06.153.09.213.093.059.003.104-.016.134-.057a.123.123 0 0 0 .025-.107.347.347 0 0 0-.062-.111 1.629 1.629 0 0 0-.109-.121 1.831 1.831 0 0 1-.12-.129.683.683 0 0 1-.094-.137.295.295 0 0 1-.034-.15.3.3 0 0 1 .065-.167c.045-.062.103-.103.172-.122s.147-.017.232.005a.853.853 0 0 1 .264.136zM8.712 26.296a.595.595 0 0 1-.152-.237c-.029-.085-.03-.173-.004-.262s.083-.179.172-.268l.519-.521.164.163-.5.502c-.087.088-.132.175-.133.263-.002.086.036.168.113.245.058.058.12.097.186.117s.133.02.201 0a.512.512 0 0 0 .199-.131l.464-.466.164.163-1.262 1.267-.164-.163.604-.606-.032.097c-.089.03-.18.03-.274.002s-.182-.083-.264-.165zM8.485 24.042c.074.105.116.215.127.329s-.007.223-.055.326a.658.658 0 0 1-.227.264c-.104.073-.213.113-.326.122s-.221-.012-.323-.063a.686.686 0 0 1-.265-.232.675.675 0 0 1-.125-.327.584.584 0 0 1 .053-.325.64.64 0 0 1 .227-.264.651.651 0 0 1 .326-.122c.113-.01.221.01.325.061.103.05.191.126.264.23zm-.166.116a.438.438 0 0 0-.171-.148.393.393 0 0 0-.217-.037.495.495 0 0 0-.227.091.475.475 0 0 0-.162.181.387.387 0 0 0-.04.216c.006.074.033.144.08.212s.104.116.171.148a.418.418 0 0 0 .217.037.454.454 0 0 0 .227-.088.49.49 0 0 0 .163-.184.409.409 0 0 0-.04-.428zM7.544 22.455a.59.59 0 0 1 .057.295.557.557 0 0 1-.11.283c-.066.087-.164.161-.295.222s-.251.089-.359.085a.522.522 0 0 1-.284-.096.619.619 0 0 1-.191-.238c-.053-.114-.075-.226-.066-.336s.046-.212.111-.304c.064-.092.155-.165.273-.22s.233-.078.346-.068c.113.01.214.047.304.111s.162.153.215.267zm.696.423-1.582.736-.093-.201.312-.145.275-.112.259-.147.732-.341.098.21zm-.871-.32a.439.439 0 0 0-.143-.176.39.39 0 0 0-.207-.074.48.48 0 0 0-.241.048.465.465 0 0 0-.19.152.392.392 0 0 0-.077.206.44.44 0 0 0 .042.222.417.417 0 0 0 .35.25.483.483 0 0 0 .238-.049.492.492 0 0 0 .193-.151.407.407 0 0 0 .077-.206.436.436 0 0 0-.042-.222zM5.448 20.247a.6.6 0 0 1 .008-.281c.024-.086.073-.159.145-.219s.17-.101.293-.124l.722-.137.043.227-.696.132c-.122.023-.207.071-.258.142a.331.331 0 0 0-.045.266c.015.08.044.148.087.202s.098.092.166.113c.068.02.147.021.239.004l.646-.123.043.227-1.255.238-.041-.218.339-.064-.083.053c-.09-.025-.166-.076-.228-.153s-.104-.172-.125-.285zM6.532 18.278c.002.129-.024.243-.079.344a.626.626 0 0 1-.564.332.618.618 0 0 1-.572-.313.682.682 0 0 1-.09-.341.674.674 0 0 1 .079-.341.592.592 0 0 1 .225-.24.644.644 0 0 1 .336-.092.655.655 0 0 1 .339.081.609.609 0 0 1 .235.232.679.679 0 0 1 .09.338zm-.203.004a.425.425 0 0 0-.059-.218.395.395 0 0 0-.159-.152.5.5 0 0 0-.239-.052.468.468 0 0 0-.235.059.388.388 0 0 0-.154.157c-.036.065-.053.138-.052.22s.021.155.059.218a.415.415 0 0 0 .159.152.461.461 0 0 0 .237.054.476.476 0 0 0 .238-.062.414.414 0 0 0 .206-.377zM6.548 16.848l-1.342.239.039-.216 1.214-.208-.019.102-1.06-.638.035-.192 1.215-.215-.018.1-1.061-.631.037-.204 1.171.698-.04.218-1.111.207.012-.066.966.589-.04.218zM7.401 13.821a1.059 1.059 0 0 1-.165.259.724.724 0 0 1-.189.16l-.127-.163a.842.842 0 0 0 .306-.354.44.44 0 0 0 .054-.23.147.147 0 0 0-.086-.119c-.037-.017-.071-.016-.104.001s-.064.045-.094.084c-.029.038-.06.081-.091.131a3.723 3.723 0 0 1-.102.144.799.799 0 0 1-.118.121.324.324 0 0 1-.142.063.326.326 0 0 1-.18-.034c-.07-.032-.123-.08-.157-.143s-.05-.137-.045-.222a.774.774 0 0 1 .074-.279c.035-.076.079-.149.133-.217a.604.604 0 0 1 .164-.158l.126.166c-.059.037-.108.081-.147.132s-.072.105-.097.162a.408.408 0 0 0-.048.227c.009.059.036.099.083.12.04.018.076.019.11.002a.344.344 0 0 0 .096-.083c.032-.039.064-.082.096-.131.031-.049.065-.097.102-.144a.694.694 0 0 1 .115-.12.292.292 0 0 1 .14-.063c.052-.01.111 0 .177.03.07.032.122.08.154.144s.047.14.042.228a.85.85 0 0 1-.08.287zM7.081 11.674a.598.598 0 0 1 .201-.197c.078-.045.163-.064.256-.057s.192.045.297.114l.615.403-.127.194-.593-.388c-.103-.068-.198-.093-.284-.077-.085.015-.157.069-.217.16-.045.069-.071.137-.077.206s.007.134.041.197a.51.51 0 0 0 .169.168l.55.361-.127.194-1.496-.98.127-.194.716.469-.102-.012c-.047-.081-.066-.17-.058-.268s.045-.196.108-.292zM9.228 11.011c-.088.094-.186.158-.296.192a.628.628 0 0 1-.635-.154c-.093-.087-.155-.185-.187-.294s-.034-.219-.005-.329a.679.679 0 0 1 .173-.307.675.675 0 0 1 .294-.19.595.595 0 0 1 .329-.016.64.64 0 0 1 .305.168.65.65 0 0 1 .187.294.61.61 0 0 1 .007.331.68.68 0 0 1-.171.306zm-.148-.139a.436.436 0 0 0 .11-.198.393.393 0 0 0-.009-.22.498.498 0 0 0-.136-.204.473.473 0 0 0-.21-.121.4.4 0 0 0-.22.005c-.071.022-.134.062-.19.122s-.093.126-.11.198a.413.413 0 0 0 .009.22.465.465 0 0 0 .133.204.478.478 0 0 0 .214.121c.076.018.149.016.22-.005s.134-.062.19-.122zM10.587 9.764a.59.59 0 0 1-.277.117.547.547 0 0 1-.299-.05c-.099-.046-.192-.127-.278-.243s-.139-.227-.157-.334a.515.515 0 0 1 .036-.298.607.607 0 0 1 .194-.236c.1-.075.205-.12.315-.134s.217.001.321.046c.103.043.193.117.271.221s.124.212.138.324c.014.112-.002.219-.046.321s-.117.19-.217.265zm-.27.769L9.271 9.137l.177-.133.207.276.166.246.197.223.484.646-.185.139zm.133-.92a.426.426 0 0 0 .142-.176.387.387 0 0 0 .029-.218.489.489 0 0 0-.097-.226.46.46 0 0 0-.188-.154.39.39 0 0 0-.217-.033.434.434 0 0 0-.209.087.437.437 0 0 0-.142.176c-.029.068-.039.141-.029.218.01.075.042.149.097.222a.497.497 0 0 0 .187.158.41.41 0 0 0 .426-.054zM12.322 7.259a.597.597 0 0 1 .277-.049c.09.006.171.039.244.098s.133.146.181.262l.28.679-.214.088-.27-.655c-.047-.114-.111-.189-.191-.223a.333.333 0 0 0-.27.01c-.076.031-.136.073-.18.126s-.07.115-.077.186a.506.506 0 0 0 .045.235l.251.608-.214.088-.487-1.181.205-.085.131.319-.068-.071c.007-.093.041-.178.104-.254s.147-.136.254-.18zM14.464 7.922c-.125.028-.243.026-.352-.008s-.203-.091-.281-.174a.66.66 0 0 1-.158-.31c-.028-.124-.024-.24.011-.348s.095-.2.18-.275a.679.679 0 0 1 .316-.157.677.677 0 0 1 .35.008.579.579 0 0 1 .28.172c.078.081.13.185.158.31a.648.648 0 0 1-.011.348.597.597 0 0 1-.18.277.678.678 0 0 1-.313.157zm-.044-.198a.436.436 0 0 0 .202-.102.389.389 0 0 0 .116-.187.494.494 0 0 0 .002-.245.47.47 0 0 0-.106-.218.383.383 0 0 0-.185-.119c-.071-.022-.146-.024-.226-.006s-.147.052-.202.102a.407.407 0 0 0-.116.187.462.462 0 0 0-.005.243.48.48 0 0 0 .109.22.414.414 0 0 0 .411.125zM15.861 7.647l-.509-1.264.219-.006.453 1.145-.104.003.407-1.168.195-.005.46 1.145-.101.003.4-1.168.207-.006-.442 1.29-.222.006-.431-1.044.067-.002-.378 1.066-.222.006zM18.998 7.856a1.051 1.051 0 0 1-.287-.108.709.709 0 0 1-.196-.152l.134-.158c.045.048.105.093.177.135s.15.073.232.091c.105.023.184.025.236.005a.143.143 0 0 0 .098-.109c.009-.039.001-.073-.022-.101s-.057-.053-.102-.074a1.516 1.516 0 0 0-.147-.062 3.296 3.296 0 0 1-.162-.07.813.813 0 0 1-.143-.091.321.321 0 0 1-.091-.126.328.328 0 0 1-.004-.183c.017-.075.052-.137.107-.184s.124-.077.207-.09a.776.776 0 0 1 .288.014c.082.018.162.046.24.085.081.038.144.08.189.128l-.136.158c-.048-.05-.101-.089-.159-.117s-.118-.048-.179-.062a.398.398 0 0 0-.232.001c-.056.021-.089.056-.1.106a.126.126 0 0 0 .02.108.35.35 0 0 0 .102.077c.044.023.094.045.148.067.055.02.109.044.162.07a.614.614 0 0 1 .141.088.293.293 0 0 1 .091.124c.02.049.023.109.007.179-.017.075-.053.136-.109.181s-.128.075-.215.088a.837.837 0 0 1-.297-.019zM20.999 7.088c.097.038.175.09.234.156.06.067.096.146.108.239s-.005.197-.05.314l-.267.685-.216-.084.258-.66c.045-.115.05-.213.016-.294a.336.336 0 0 0-.201-.18c-.076-.03-.149-.041-.217-.033s-.13.035-.184.081a.507.507 0 0 0-.13.2l-.239.613-.215-.084.651-1.666.216.084-.311.797-.009-.102c.069-.063.153-.1.251-.112s.2.003.308.045zM22.089 9.05c-.11-.067-.193-.15-.249-.25a.633.633 0 0 1 .019-.653.617.617 0 0 1 .57-.316.695.695 0 0 1 .336.105.682.682 0 0 1 .247.248.587.587 0 0 1 .083.318.642.642 0 0 1-.101.333.644.644 0 0 1-.249.243.597.597 0 0 1-.322.075.68.68 0 0 1-.334-.104zm.105-.173a.419.419 0 0 0 .429.012.495.495 0 0 0 .171-.175.463.463 0 0 0 .075-.231.388.388 0 0 0-.051-.214c-.036-.065-.089-.119-.159-.161s-.142-.065-.216-.066a.407.407 0 0 0-.213.054.457.457 0 0 0-.172.172.48.48 0 0 0-.074.234.411.411 0 0 0 .21.375zM23.603 10.127a.603.603 0 0 1-.172-.246.544.544 0 0 1-.013-.303c.025-.106.085-.214.18-.323s.193-.183.294-.223a.517.517 0 0 1 .299-.027.616.616 0 0 1 .271.141c.094.083.16.176.196.281s.044.212.022.323c-.021.11-.075.213-.16.311s-.182.165-.289.202c-.107.037-.215.044-.323.022s-.21-.075-.304-.157zm-.808-.105 1.149-1.313.167.146-.227.259-.206.214-.177.239-.531.608-.174-.152zm.927-.06a.44.44 0 0 0 .201.103.39.39 0 0 0 .219-.016.493.493 0 0 0 .201-.142.46.46 0 0 0 .112-.216.392.392 0 0 0-.013-.22.43.43 0 0 0-.129-.186.45.45 0 0 0-.201-.103.42.42 0 0 0-.416.157.496.496 0 0 0-.115.216.42.42 0 0 0 .013.22.436.436 0 0 0 .129.186zM26.43 11.323a.59.59 0 0 1 .105.261c.012.089-.003.175-.046.258s-.115.16-.219.231l-.607.414-.13-.191.585-.399c.102-.07.162-.147.179-.233a.332.332 0 0 0-.065-.262c-.046-.068-.1-.118-.161-.15s-.127-.045-.198-.037a.505.505 0 0 0-.22.092l-.544.371-.13-.191 1.055-.719.125.183-.285.194.055-.081c.093-.013.183.004.27.049s.164.116.229.212zM26.221 13.555c-.053-.117-.074-.233-.064-.347a.626.626 0 0 1 .386-.529c.116-.052.23-.072.343-.06s.215.053.306.121a.69.69 0 0 1 .218.277c.052.116.073.23.063.344a.591.591 0 0 1-.111.31.648.648 0 0 1-.272.218.658.658 0 0 1-.343.06.609.609 0 0 1-.308-.12.68.68 0 0 1-.217-.275zm.184-.084a.431.431 0 0 0 .141.177c.061.045.13.07.206.076a.501.501 0 0 0 .24-.048.473.473 0 0 0 .192-.148.388.388 0 0 0 .079-.205c.007-.074-.006-.148-.04-.223s-.081-.134-.141-.177a.413.413 0 0 0-.206-.076.456.456 0 0 0-.239.045.485.485 0 0 0-.194.151c-.046.063-.072.131-.079.205s.006.148.04.223zM26.776 14.862l1.135-.755.05.214-1.029.676-.024-.101 1.226.162.045.19-1.028.683-.023-.099 1.225.155.048.202-1.353-.172-.051-.216.935-.634.015.066-1.121-.155-.051-.216zM27.214 17.948c.001-.106.016-.207.046-.303a.713.713 0 0 1 .108-.223l.182.098a.822.822 0 0 0-.137.446.44.44 0 0 0 .044.232c.03.048.072.073.127.073.04 0 .072-.014.094-.042s.04-.067.052-.115c.012-.046.022-.099.03-.156.01-.058.022-.115.035-.173a.806.806 0 0 1 .059-.159.315.315 0 0 1 .105-.115.327.327 0 0 1 .179-.042c.077.001.144.023.202.067s.101.105.131.184a.775.775 0 0 1 .045.285 1.054 1.054 0 0 1-.034.253.615.615 0 0 1-.086.211l-.182-.101c.039-.057.066-.117.081-.18s.023-.125.024-.188a.41.41 0 0 0-.048-.227c-.032-.05-.073-.075-.125-.076a.13.13 0 0 0-.102.042.341.341 0 0 0-.054.115 1.737 1.737 0 0 0-.035.159 1.71 1.71 0 0 1-.035.173.6.6 0 0 1-.057.156.299.299 0 0 1-.102.115.296.296 0 0 1-.174.044c-.077-.001-.144-.024-.199-.069s-.099-.109-.131-.192a.836.836 0 0 1-.043-.294zM28.379 19.783a.6.6 0 0 1-.104.261c-.053.073-.123.125-.212.155s-.194.036-.318.016l-.725-.12.038-.228.699.116c.122.02.219.006.291-.044.072-.048.116-.126.134-.234.013-.081.009-.154-.012-.22s-.061-.12-.117-.164a.504.504 0 0 0-.223-.086l-.649-.108.038-.228 1.764.293-.038.228-.844-.14.098-.03c.076.055.129.129.161.222s.038.197.019.311zM26.695 21.224c.043-.121.107-.22.193-.295a.63.63 0 0 1 .644-.116.619.619 0 0 1 .427.493.68.68 0 0 1-.034.351.682.682 0 0 1-.192.293.595.595 0 0 1-.294.147.635.635 0 0 1-.347-.03.656.656 0 0 1-.29-.194.61.61 0 0 1-.14-.299.682.682 0 0 1 .033-.349zm.191.067a.427.427 0 0 0-.02.225c.013.074.045.14.097.198a.488.488 0 0 0 .207.131c.086.03.167.039.241.026a.388.388 0 0 0 .199-.094c.056-.048.098-.111.125-.189s.034-.152.02-.225-.046-.139-.097-.198a.454.454 0 0 0-.204-.133.472.472 0 0 0-.244-.024.417.417 0 0 0-.324.282zM25.972 22.894a.587.587 0 0 1 .206-.219.556.556 0 0 1 .294-.076c.109.002.227.039.353.109s.219.151.279.242a.524.524 0 0 1 .088.287.61.61 0 0 1-.082.294c-.061.109-.139.193-.234.25s-.199.087-.312.088c-.112.002-.224-.029-.338-.093s-.199-.144-.257-.241c-.058-.097-.087-.201-.088-.312s.03-.221.091-.33zm-.065-.812 1.522.853-.108.193-.301-.168-.252-.157-.27-.124-.704-.395.113-.202zm.251.894a.431.431 0 0 0-.059.218c0 .076.02.146.061.211a.478.478 0 0 0 .18.167c.08.045.158.066.234.065a.391.391 0 0 0 .212-.058.433.433 0 0 0 .156-.164.415.415 0 0 0-.002-.429.485.485 0 0 0-.179-.164.49.49 0 0 0-.235-.068.416.416 0 0 0-.368.222zM25.351 25.965a.597.597 0 0 1-.234.157c-.085.03-.172.033-.262.009s-.181-.08-.271-.167l-.53-.509.16-.167.511.491c.089.086.178.128.265.127a.335.335 0 0 0 .243-.118c.057-.059.095-.122.114-.188s.018-.133-.004-.201a.512.512 0 0 0-.135-.197l-.475-.456.16-.167.922.884-.153.16-.249-.239.091.037c.031.088.034.179.007.274s-.08.184-.16.267zM23.133 26.217c.104-.076.212-.121.326-.134a.63.63 0 0 1 .596.268c.075.102.118.21.129.323s-.007.221-.055.324a.68.68 0 0 1-.226.27.681.681 0 0 1-.324.133.586.586 0 0 1-.326-.045.641.641 0 0 1-.269-.221.646.646 0 0 1-.129-.323.615.615 0 0 1 .054-.326.682.682 0 0 1 .224-.269zm.119.163a.427.427 0 0 0-.144.174.396.396 0 0 0-.032.218.494.494 0 0 0 .096.225.476.476 0 0 0 .184.158c.07.033.142.044.217.035.074-.008.144-.036.21-.085s.114-.106.144-.174a.412.412 0 0 0 .032-.218.464.464 0 0 0-.093-.225.477.477 0 0 0-.188-.158c-.071-.032-.143-.044-.217-.035s-.144.036-.21.085zM21.936 27.047l.969.958-.199.093-.87-.871.094-.044.09 1.234-.177.082-.877-.868.092-.043.097 1.231-.188.087-.106-1.359.201-.094.81.787-.061.029-.076-1.129.201-.094zM18.997 28.103c.104-.02.206-.026.306-.016.099.01.179.03.24.061l-.059.198c-.061-.026-.133-.043-.217-.053s-.167-.006-.249.01a.438.438 0 0 0-.218.09.143.143 0 0 0-.046.139c.008.04.028.067.061.084s.074.026.123.027c.048.002.101.001.159-.002.058-.002.118-.002.177-.001.06.003.115.012.167.026a.319.319 0 0 1 .134.079.325.325 0 0 1 .077.167c.015.076.007.146-.025.211s-.083.12-.154.166a.76.76 0 0 1-.27.102 1.068 1.068 0 0 1-.254.018.6.6 0 0 1-.224-.042l.061-.199c.064.026.129.041.193.043s.127-.003.189-.015a.407.407 0 0 0 .212-.094c.043-.041.059-.087.049-.137a.123.123 0 0 0-.062-.091.364.364 0 0 0-.124-.03 1.731 1.731 0 0 0-.163-.002 1.742 1.742 0 0 1-.177 0 .606.606 0 0 1-.164-.024.292.292 0 0 1-.133-.077.298.298 0 0 1-.079-.161c-.015-.076-.006-.145.028-.209s.087-.12.161-.167a.835.835 0 0 1 .28-.102zM17.463 29.613a.6.6 0 0 1-.277-.049c-.082-.037-.147-.095-.195-.175s-.075-.183-.08-.308l-.031-.734.231-.01.03.708c.005.124.04.215.103.275.062.06.148.088.257.083.082-.003.153-.023.212-.057s.105-.084.136-.148a.5.5 0 0 0 .038-.235l-.027-.657.231-.01.075 1.787-.231.01-.036-.855.05.09c-.038.085-.1.153-.184.203s-.185.078-.3.083zM15.681 28.259c.127.017.237.06.328.128a.634.634 0 0 1 .246.606c-.017.126-.06.233-.13.323s-.158.155-.264.196a.678.678 0 0 1-.35.039.683.683 0 0 1-.326-.128.586.586 0 0 1-.204-.258.638.638 0 0 1-.042-.346.657.657 0 0 1 .13-.323.614.614 0 0 1 .264-.199.672.672 0 0 1 .348-.039zm-.026.2a.434.434 0 0 0-.225.026.388.388 0 0 0-.173.135.498.498 0 0 0-.086.229.473.473 0 0 0 .024.241.39.39 0 0 0 .132.175c.059.045.129.073.21.084s.156.002.225-.026.126-.073.173-.135a.458.458 0 0 0 .088-.227.48.48 0 0 0-.026-.244.414.414 0 0 0-.342-.259zM13.899 27.891a.609.609 0 0 1 .257.156.542.542 0 0 1 .134.272c.02.107.009.23-.035.368s-.103.245-.179.323a.516.516 0 0 1-.263.145.598.598 0 0 1-.304-.02c-.12-.038-.217-.097-.293-.178s-.126-.177-.15-.287c-.025-.109-.018-.225.021-.349s.1-.225.183-.301.179-.127.287-.15a.672.672 0 0 1 .342.021zm.782-.229-.522 1.665-.212-.066.103-.329.103-.279.066-.29.242-.77.221.069zm-.824.428a.438.438 0 0 0-.226-.013.394.394 0 0 0-.194.103.489.489 0 0 0-.127.21.466.466 0 0 0-.016.243.396.396 0 0 0 .1.196c.05.055.114.094.193.119a.412.412 0 0 0 .42-.09.48.48 0 0 0 .124-.209.422.422 0 0 0-.081-.44.441.441 0 0 0-.193-.119z"/>
    </symbol>
    <symbol id="icon-btn_desk_arrow" viewBox="0 0 32 32">
        <path d="M31.914 7.203a.604.604 0 0 0-.453-.724l-5.295-1.222a.604.604 0 0 0-.272 1.176L30.6 7.52l-1.087 4.706a.604.604 0 0 0 1.176.272l1.222-5.295zM.924 26.776 31.646 7.579l-.64-1.024L.284 25.752l.64 1.024z"/>
    </symbol>
    <symbol id="icon-btn_desk" viewBox="0 0 32 32">
        <path d="M21.177 14.541a.193.193 0 0 0-.144-.231l-1.69-.39a.193.193 0 0 0-.087.375l1.503.347-.347 1.503a.193.193 0 0 0 .375.087l.39-1.69zm-9.894 6.249 9.809-6.129-.204-.327-9.809 6.129.204.327zM28.663 17.119c.009-.15.038-.291.087-.422a.955.955 0 0 1 .181-.306l.188.122a1.08 1.08 0 0 0-.162.276 1.137 1.137 0 0 0-.08.36c-.01.173.009.299.058.379a.26.26 0 0 0 .212.127.193.193 0 0 0 .16-.057.37.37 0 0 0 .096-.161c.025-.068.047-.144.065-.229s.04-.169.063-.254a.958.958 0 0 1 .093-.224.48.48 0 0 1 .159-.161.444.444 0 0 1 .253-.048c.099.006.187.039.262.099s.132.144.169.253c.04.111.056.244.046.399-.007.118-.03.235-.069.351a.952.952 0 0 1-.138.284l-.191-.119a.82.82 0 0 0 .133-.253c.031-.091.049-.183.054-.275.009-.164-.012-.287-.066-.369a.256.256 0 0 0-.208-.127.213.213 0 0 0-.166.053.475.475 0 0 0-.103.164c-.025.07-.047.147-.066.229a2.964 2.964 0 0 1-.067.25c-.024.084-.055.16-.093.227a.397.397 0 0 1-.395.214.447.447 0 0 1-.272-.106.565.565 0 0 1-.165-.267 1.17 1.17 0 0 1-.039-.409zM30.209 19.497a.83.83 0 0 1-.166.362.591.591 0 0 1-.306.204.886.886 0 0 1-.448.003l-1.035-.222.052-.241 1.011.217c.188.04.339.023.455-.051.117-.072.194-.193.23-.362a.694.694 0 0 0-.007-.349.534.534 0 0 0-.174-.264.752.752 0 0 0-.33-.149l-.936-.201.052-.241 2.517.54-.052.241-1.225-.263.102-.028a.653.653 0 0 1 .244.336c.048.14.054.297.017.469zM27.766 21.145a.957.957 0 0 1 .289-.395.898.898 0 0 1 .922-.109c.169.069.302.168.4.295s.157.27.177.429a.957.957 0 0 1-.071.485.941.941 0 0 1-.291.398.84.84 0 0 1-.427.181.935.935 0 0 1-.492-.071.95.95 0 0 1-.4-.295.86.86 0 0 1-.18-.43.977.977 0 0 1 .072-.488zm.203.083a.707.707 0 0 0-.053.357.641.641 0 0 0 .14.316.769.769 0 0 0 .312.226c.133.054.26.074.381.059a.616.616 0 0 0 .319-.128c.094-.071.166-.167.215-.287a.67.67 0 0 0-.088-.673.76.76 0 0 0-.312-.226.762.762 0 0 0-.381-.059.663.663 0 0 0-.323.13.678.678 0 0 0-.21.285zM26.715 23.19a.848.848 0 0 1 .319-.303.824.824 0 0 1 .43-.09c.157.011.32.07.488.176s.29.227.366.362c.078.137.113.278.106.424s-.053.286-.139.421a.914.914 0 0 1-.348.33.825.825 0 0 1-.45.102.965.965 0 0 1-.471-.158c-.157-.099-.272-.218-.348-.359s-.109-.291-.102-.45a.915.915 0 0 1 .148-.456zm-.053-1.145 2.11 1.331-.126.2-.464-.293-.295-.215-.33-.167-1.027-.648.132-.208zm.247 1.247a.7.7 0 0 0-.112.34.67.67 0 0 0 .082.339c.06.109.149.201.269.276s.24.116.362.122a.662.662 0 0 0 .602-.317.69.69 0 0 0 .111-.344.67.67 0 0 0-.082-.339c-.059-.106-.148-.196-.268-.272s-.24-.117-.363-.127a.662.662 0 0 0-.341.072.714.714 0 0 0-.26.25zM25.988 26.966a.83.83 0 0 1-.342.205.594.594 0 0 1-.368-.004.892.892 0 0 1-.372-.25l-.729-.767.178-.17.712.749c.132.139.267.21.404.214.137.007.269-.05.395-.169a.689.689 0 0 0 .191-.292.535.535 0 0 0 .006-.317.765.765 0 0 0-.188-.309l-.66-.694.178-.17 1.255 1.32-.171.163-.344-.362.092.041a.655.655 0 0 1 .012.415.865.865 0 0 1-.251.396zM23.062 26.937a.956.956 0 0 1 .461-.166.9.9 0 0 1 .826.425c.101.152.157.308.167.469s-.021.312-.093.454a.955.955 0 0 1-.33.362.961.961 0 0 1-.464.168.848.848 0 0 1-.455-.088.944.944 0 0 1-.369-.334.953.953 0 0 1-.167-.469.866.866 0 0 1 .091-.457.97.97 0 0 1 .333-.364zm.121.182a.686.686 0 0 0-.243.267.641.641 0 0 0-.06.341c.01.124.055.244.133.362.08.119.174.206.283.262a.62.62 0 0 0 .336.072c.118-.006.231-.046.339-.118s.187-.161.239-.268c.052-.105.074-.218.065-.34s-.053-.242-.133-.362a.765.765 0 0 0-.283-.262.67.67 0 0 0-.341-.073.676.676 0 0 0-.334.119zM21.597 27.832l1.332 1.42-.218.09-1.224-1.322.099-.041.054 1.807-.195.081-1.234-1.318.099-.041.06 1.804-.208.086-.059-1.947.215-.089 1.172 1.235-.067.028-.041-1.703.215-.089zM17.898 28.942c.149-.022.293-.022.431-.001a.937.937 0 0 1 .336.115l-.082.209a1.106 1.106 0 0 0-.672-.108c-.172.025-.291.07-.359.134a.257.257 0 0 0-.081.233c.01.067.039.115.088.145a.376.376 0 0 0 .177.061c.072.01.151.016.238.018s.174.005.261.011a.94.94 0 0 1 .238.046.473.473 0 0 1 .19.123c.05.056.083.135.098.238.015.098 0 .19-.043.276s-.115.158-.213.217a.994.994 0 0 1-.381.126 1.332 1.332 0 0 1-.357.003.937.937 0 0 1-.306-.078l.078-.211a1.008 1.008 0 0 0 .555.076c.163-.024.278-.07.348-.139a.257.257 0 0 0 .082-.23.212.212 0 0 0-.086-.152.49.49 0 0 0-.182-.068 2.156 2.156 0 0 0-.238-.018 2.75 2.75 0 0 1-.258-.015 1.01 1.01 0 0 1-.242-.045.393.393 0 0 1-.289-.343.443.443 0 0 1 .049-.288.569.569 0 0 1 .228-.216c.104-.057.235-.098.393-.121zM15.845 30.938a.826.826 0 0 1-.388-.09.59.59 0 0 1-.262-.259.888.888 0 0 1-.094-.438l.008-1.058.246.002-.008 1.034c-.001.192.046.337.142.435.094.1.228.151.401.152a.703.703 0 0 0 .341-.077.537.537 0 0 0 .224-.224.751.751 0 0 0 .079-.353l.007-.958.246.002-.02 2.574-.246-.002.01-1.252.048.094a.649.649 0 0 1-.28.306.875.875 0 0 1-.455.111zM13.76 28.885a.965.965 0 0 1 .446.201.902.902 0 0 1 .298.88c-.033.18-.102.331-.206.453s-.232.209-.383.262a.953.953 0 0 1-.489.031.968.968 0 0 1-.45-.202.845.845 0 0 1-.266-.38.934.934 0 0 1-.033-.496.95.95 0 0 1 .206-.453.865.865 0 0 1 .384-.265.966.966 0 0 1 .492-.03zm-.04.215a.698.698 0 0 0-.36.022.632.632 0 0 0-.28.203.755.755 0 0 0-.156.353.748.748 0 0 0 .021.385c.038.115.101.21.191.285.089.077.198.128.325.151s.247.014.358-.026c.111-.039.205-.105.283-.199s.13-.211.156-.352a.773.773 0 0 0-.021-.385.673.673 0 0 0-.194-.29.687.687 0 0 0-.322-.147zM11.543 28.277a.868.868 0 0 1 .363.249.816.816 0 0 1 .176.402c.021.156-.003.327-.072.514s-.162.331-.279.433c-.118.104-.249.168-.393.191s-.291.007-.441-.049a.913.913 0 0 1-.395-.272.809.809 0 0 1-.192-.419.972.972 0 0 1 .057-.493c.064-.174.158-.312.28-.414s.262-.167.419-.192a.921.921 0 0 1 .477.051zm1.11-.288-.868 2.339-.221-.082.191-.514.149-.333.095-.357.422-1.139.231.086zm-1.169.499a.698.698 0 0 0-.355-.04.668.668 0 0 0-.315.15c-.094.081-.166.188-.215.32s-.064.259-.045.38a.656.656 0 0 0 .435.524.69.69 0 0 0 .36.037.668.668 0 0 0 .315-.15c.091-.08.161-.186.21-.318s.065-.259.049-.381a.656.656 0 0 0-.141-.319.71.71 0 0 0-.298-.203zM7.697 28.335a.82.82 0 0 1-.27-.293.59.59 0 0 1-.07-.361.879.879 0 0 1 .17-.414l.604-.869.202.141-.59.849c-.109.158-.152.304-.128.439.021.136.103.253.246.352a.687.687 0 0 0 .325.128.532.532 0 0 0 .311-.059.766.766 0 0 0 .265-.247l.546-.787.202.141-1.039 1.496-.194-.135.285-.41-.022.099a.654.654 0 0 1-.404.095.874.874 0 0 1-.439-.165zM7.135 25.469c.125.123.21.263.256.418a.898.898 0 0 1 .003.466.95.95 0 0 1-.252.429c-.128.13-.27.216-.425.258s-.31.042-.464.001a.94.94 0 0 1-.421-.25.947.947 0 0 1-.258-.42.85.85 0 0 1-.006-.464.942.942 0 0 1 .252-.429.95.95 0 0 1 .425-.258.858.858 0 0 1 .466-.003.966.966 0 0 1 .424.252zm-.153.155a.637.637 0 0 0-.657-.174.755.755 0 0 0-.327.204.746.746 0 0 0-.199.33.61.61 0 0 0-.002.344c.03.114.092.217.184.308a.662.662 0 0 0 .657.174.739.739 0 0 0 .327-.204.773.773 0 0 0 .199-.33.656.656 0 0 0 .002-.349.678.678 0 0 0-.184-.303zM5.965 24.224l-1.116 1.595-.133-.195 1.043-1.469.061.089-1.757.424-.119-.175 1.037-1.478.061.089-1.753.43-.127-.186 1.894-.458.131.192-.967 1.401-.041-.06 1.659-.39.131.192zM4.116 20.836c.052.141.082.281.09.422a.95.95 0 0 1-.043.353l-.221-.037a1.106 1.106 0 0 0-.033-.679c-.06-.163-.129-.27-.205-.323a.257.257 0 0 0-.245-.031.19.19 0 0 0-.123.116.382.382 0 0 0-.023.186c.005.072.015.151.032.236s.031.171.044.258a.987.987 0 0 1 .005.242.477.477 0 0 1-.081.211.441.441 0 0 1-.212.145c-.093.035-.186.04-.279.015s-.179-.079-.257-.164a1.01 1.01 0 0 1-.203-.347 1.352 1.352 0 0 1-.078-.349.95.95 0 0 1 .012-.316l.223.032a.786.786 0 0 0-.02.285c.008.096.029.187.061.274.057.154.126.258.208.312a.258.258 0 0 0 .242.033.214.214 0 0 0 .131-.115.48.48 0 0 0 .029-.192 1.924 1.924 0 0 0-.032-.236 2.775 2.775 0 0 1-.039-.256 1.024 1.024 0 0 1-.006-.246.391.391 0 0 1 .276-.354.445.445 0 0 1 .292-.012.575.575 0 0 1 .259.178c.078.09.144.209.2.359zM1.749 19.281a.83.83 0 0 1 .008-.398.588.588 0 0 1 .199-.309.895.895 0 0 1 .409-.182l1.037-.21.049.241-1.013.205c-.188.038-.32.114-.396.229-.079.113-.101.254-.066.424a.69.69 0 0 0 .146.317.533.533 0 0 0 .265.173.756.756 0 0 0 .362.005l.939-.19.049.242-2.523.511-.049-.242 1.228-.249-.082.066a.657.657 0 0 1-.358-.211.869.869 0 0 1-.203-.423zM3.326 16.821a.952.952 0 0 1-.105.478.89.89 0 0 1-.321.338.942.942 0 0 1-.479.134c-.183.005-.344-.031-.485-.108s-.253-.184-.335-.321a.954.954 0 0 1-.131-.472.953.953 0 0 1 .105-.482.846.846 0 0 1 .317-.338.938.938 0 0 1 .479-.134.95.95 0 0 1 .485.108.862.862 0 0 1 .338.321.973.973 0 0 1 .131.476zm-.218.006a.706.706 0 0 0-.096-.348.64.64 0 0 0-.256-.233.76.76 0 0 0-.377-.08.751.751 0 0 0-.372.1.617.617 0 0 0-.24.246c-.057.103-.084.22-.081.349a.663.663 0 0 0 .353.58.75.75 0 0 0 .377.08.763.763 0 0 0 .372-.1.655.655 0 0 0 .243-.25.678.678 0 0 0 .077-.346zM3.46 14.509a.853.853 0 0 1-.169.407.825.825 0 0 1-.357.256c-.148.053-.321.065-.517.036s-.357-.09-.482-.183c-.127-.093-.216-.208-.268-.345s-.067-.283-.044-.441a.91.91 0 0 1 .185-.443.82.82 0 0 1 .37-.275.953.953 0 0 1 .494-.046c.183.027.338.089.463.187s.218.221.275.37a.916.916 0 0 1 .049.477zm.512 1.026-2.468-.363.034-.233.542.08.357.077.369.019 1.201.177-.036.244zm-.731-1.041a.693.693 0 0 0-.035-.356.666.666 0 0 0-.212-.277c-.099-.075-.218-.123-.358-.144s-.266-.009-.381.035a.665.665 0 0 0-.423.534.69.69 0 0 0 .038.36.666.666 0 0 0 .212.277c.097.073.215.119.355.14s.267.01.383-.031a.669.669 0 0 0 .283-.204.717.717 0 0 0 .137-.334zM2.613 10.728a.842.842 0 0 1 .231-.324.59.59 0 0 1 .339-.143.878.878 0 0 1 .441.081l.975.412-.096.227-.952-.403c-.177-.075-.329-.086-.456-.035-.129.049-.227.153-.294.313a.703.703 0 0 0-.059.344c.01.107.05.205.121.292.07.085.168.154.296.208l.882.373-.096.227-1.678-.71.092-.217.46.195-.101-.001a.65.65 0 0 1-.176-.376.86.86 0 0 1 .072-.463zM5.302 9.592a.959.959 0 0 1-.357.335.9.9 0 0 1-.927-.062c-.153-.099-.267-.22-.339-.364s-.104-.295-.095-.454a.94.94 0 0 1 .159-.463.955.955 0 0 1 .359-.338.846.846 0 0 1 .453-.1.936.936 0 0 1 .471.16.941.941 0 0 1 .339.364.871.871 0 0 1 .098.456.966.966 0 0 1-.161.466zm-.183-.119a.688.688 0 0 0 .117-.341.638.638 0 0 0-.08-.337.752.752 0 0 0-.266-.279.755.755 0 0 0-.364-.128.617.617 0 0 0-.337.067c-.106.053-.194.134-.264.242s-.108.222-.113.34c-.007.117.018.229.075.338s.145.201.266.279c.119.077.24.119.364.128a.676.676 0 0 0 .342-.068.685.685 0 0 0 .259-.241zM6.277 8.194l-1.788-.77.164-.17 1.65.723-.075.077-.771-1.635.147-.152 1.657.716-.075.077-.776-1.63.157-.162.832 1.761-.161.167-1.568-.663.051-.052.718 1.545-.161.167zM9.187 5.707c-.127.08-.259.139-.394.175a.947.947 0 0 1-.354.031l-.01-.224a1.086 1.086 0 0 0 .658-.174c.147-.093.238-.182.274-.267a.258.258 0 0 0-.02-.246.193.193 0 0 0-.139-.097.373.373 0 0 0-.187.016c-.07.019-.145.046-.224.08s-.161.066-.243.096a.993.993 0 0 1-.236.055.48.48 0 0 1-.223-.035.44.44 0 0 1-.186-.178c-.053-.084-.077-.174-.072-.27s.041-.191.107-.285a1.01 1.01 0 0 1 .297-.27c.1-.063.208-.112.325-.148a.943.943 0 0 1 .311-.053l.015.225a.792.792 0 0 0-.283.039 1.018 1.018 0 0 0-.255.116c-.139.088-.226.177-.262.268a.254.254 0 0 0 .018.243.214.214 0 0 0 .14.105c.058.01.123.006.194-.011a1.96 1.96 0 0 0 .224-.08c.08-.034.16-.064.242-.091a.997.997 0 0 1 .239-.057.4.4 0 0 1 .404.197c.057.09.081.184.072.283a.568.568 0 0 1-.121.29 1.17 1.17 0 0 1-.31.269zM10.256 3.046a.826.826 0 0 1 .391-.074c.126.006.241.05.344.131.105.08.193.201.263.363l.42.972-.226.098-.41-.949c-.076-.176-.178-.29-.306-.34-.127-.054-.269-.046-.429.023a.704.704 0 0 0-.281.208.531.531 0 0 0-.114.295.756.756 0 0 0 .07.355l.38.879-.226.098-1.021-2.364.226-.098.497 1.15-.082-.067a.66.66 0 0 1 .132-.394.863.863 0 0 1 .372-.285zM12.951 4.092a.967.967 0 0 1-.49-.004.906.906 0 0 1-.627-.685c-.042-.178-.04-.344.006-.497s.128-.285.245-.394a.944.944 0 0 1 .435-.225.945.945 0 0 1 .493.004.837.837 0 0 1 .396.241.934.934 0 0 1 .23.441.95.95 0 0 1-.006.497.867.867 0 0 1-.244.397.966.966 0 0 1-.438.226zM12.9 3.88a.704.704 0 0 0 .321-.166.643.643 0 0 0 .175-.299.76.76 0 0 0 .001-.385.755.755 0 0 0-.175-.344.62.62 0 0 0-.29-.184c-.113-.035-.232-.037-.358-.007s-.232.086-.317.168c-.086.08-.145.179-.179.296s-.034.246-.001.385a.765.765 0 0 0 .175.344.66.66 0 0 0 .294.187.684.684 0 0 0 .354.005zM15.192 3.749a.85.85 0 0 1-.433-.081.814.814 0 0 1-.324-.296c-.082-.134-.13-.3-.142-.499s.014-.368.08-.509c.065-.143.159-.254.282-.334s.264-.124.423-.134a.91.91 0 0 1 .471.089.828.828 0 0 1 .346.305.96.96 0 0 1 .147.474c.011.185-.018.349-.088.492s-.172.259-.305.346a.906.906 0 0 1-.457.146zm-.898.712-.154-2.49.236-.015.034.547-.002.365.057.365.075 1.212-.246.015zm.867-.929a.691.691 0 0 0 .341-.108.655.655 0 0 0 .227-.264c.053-.112.076-.239.067-.38s-.046-.263-.113-.365a.658.658 0 0 0-.61-.303.655.655 0 0 0-.571.376c-.051.11-.072.235-.064.376s.045.264.11.369a.658.658 0 0 0 .258.234.712.712 0 0 0 .355.065zM18.801 2.137a.828.828 0 0 1 .365.159.587.587 0 0 1 .21.302.888.888 0 0 1 .012.448l-.202 1.039-.242-.047.198-1.015c.037-.188.017-.34-.06-.454-.074-.116-.196-.19-.367-.223a.701.701 0 0 0-.349.013.531.531 0 0 0-.261.179.759.759 0 0 0-.143.333l-.183.94-.242-.047.348-1.788.232.045-.096.49-.02-.099a.653.653 0 0 1 .331-.25.87.87 0 0 1 .468-.026zM20.456 4.527a.964.964 0 0 1-.402-.28.896.896 0 0 1-.13-.92c.065-.171.161-.306.286-.407s.267-.163.424-.186a.941.941 0 0 1 .486.06.967.967 0 0 1 .405.282.843.843 0 0 1 .191.423.934.934 0 0 1-.06.494.96.96 0 0 1-.286.407.87.87 0 0 1-.426.19.972.972 0 0 1-.489-.061zm.079-.204a.704.704 0 0 0 .358.045.643.643 0 0 0 .313-.147.767.767 0 0 0 .219-.318.753.753 0 0 0 .05-.382.62.62 0 0 0-.135-.316c-.073-.093-.171-.162-.292-.209a.66.66 0 0 0-.671.103.75.75 0 0 0-.218.318.758.758 0 0 0-.05.382.663.663 0 0 0 .137.32c.074.09.171.158.29.204zM22.066 5.214l.391-1.907.2.126-.374 1.762-.091-.057 1.445-1.086.179.113-.365 1.768-.091-.057 1.439-1.09.191.12-1.556 1.172-.197-.124.332-1.67.062.039-1.368 1.016-.197-.124zM25.095 7.565a1.424 1.424 0 0 1-.251-.351.962.962 0 0 1-.102-.34l.217-.055a1.113 1.113 0 0 0 .303.609c.12.125.226.196.318.214a.261.261 0 0 0 .237-.069.197.197 0 0 0 .067-.156.384.384 0 0 0-.053-.18c-.033-.064-.075-.132-.124-.203s-.097-.144-.143-.219a1.005 1.005 0 0 1-.101-.22.482.482 0 0 1-.011-.226.441.441 0 0 1 .136-.218c.072-.069.155-.111.25-.125s.195.001.301.047a.992.992 0 0 1 .324.237c.082.085.152.181.211.288.06.106.099.204.115.294l-.217.06a.78.78 0 0 0-.096-.269 1.042 1.042 0 0 0-.165-.226c-.114-.118-.219-.186-.315-.202a.255.255 0 0 0-.234.067.212.212 0 0 0-.074.158.466.466 0 0 0 .051.187c.035.066.076.134.124.203.05.071.096.144.138.218a.971.971 0 0 1 .104.223.39.39 0 0 1-.11.435.448.448 0 0 1-.263.128.565.565 0 0 1-.308-.06 1.164 1.164 0 0 1-.327-.249zM27.897 8.046a.834.834 0 0 1 .153.368.583.583 0 0 1-.058.363.875.875 0 0 1-.301.331l-.865.61-.142-.201.845-.596c.157-.111.247-.234.27-.369.027-.135-.01-.273-.11-.415a.704.704 0 0 0-.261-.232.534.534 0 0 0-.312-.051.747.747 0 0 0-.333.142L26 8.548l-.142-.201 2.104-1.484.142.201-1.024.722.049-.094a.656.656 0 0 1 .413.049c.136.06.254.162.355.305zM27.442 10.925a.958.958 0 0 1-.096-.48.903.903 0 0 1 .541-.755c.165-.078.328-.11.488-.096s.305.067.436.159c.13.092.233.218.31.38.077.163.11.324.098.483a.842.842 0 0 1-.154.437.945.945 0 0 1-.384.316.952.952 0 0 1-.488.096.871.871 0 0 1-.439-.157.97.97 0 0 1-.311-.383zm.198-.093a.692.692 0 0 0 .228.28.643.643 0 0 0 .328.11.76.76 0 0 0 .377-.078.75.75 0 0 0 .301-.242.66.66 0 0 0 .053-.674.672.672 0 0 0-.23-.275c-.096-.067-.205-.105-.327-.114s-.248.017-.377.078a.75.75 0 0 0-.3.242.661.661 0 0 0-.122.326.685.685 0 0 0 .068.348zM28.235 13.05a.844.844 0 0 1-.009-.44.826.826 0 0 1 .223-.378c.114-.108.267-.189.459-.241s.363-.062.515-.026c.153.035.282.104.384.207s.176.232.218.386a.923.923 0 0 1 .01.48.822.822 0 0 1-.228.401.966.966 0 0 1-.434.242c-.178.049-.345.054-.5.015s-.288-.115-.401-.228a.917.917 0 0 1-.237-.417zm-.882-.733 2.406-.662.062.227-.529.145-.358.073-.345.131-1.171.322-.065-.238zm1.088.658a.687.687 0 0 0 .176.312.669.669 0 0 0 .305.168c.121.029.249.025.385-.012s.248-.099.334-.185a.66.66 0 0 0 .172-.658.679.679 0 0 0-.18-.314.669.669 0 0 0-.305-.168c-.118-.028-.245-.023-.381.015s-.249.098-.338.183a.66.66 0 0 0-.177.3.715.715 0 0 0 .009.361z"/>
    </symbol>
    <symbol id="icon-btn_mob_arrow" viewBox="0 0 32 32">
        <path d="M30.907 5.914a.64.64 0 0 0-.532-.732l-5.689-.901a.64.64 0 0 0-.2 1.264l5.057.801-.801 5.057a.64.64 0 0 0 1.264.2l.901-5.689zM1.656 27.398 30.651 6.332l-.752-1.036L.904 26.362l.752 1.036z"/>
    </symbol>
    <symbol id="icon-btn_mob" viewBox="0 0 32 32">
        <path d="M21.535 13.314a.21.21 0 0 0-.175-.241l-1.871-.296a.21.21 0 1 0-.066.416l1.663.263-.263 1.664a.21.21 0 1 0 .416.066l.296-1.871zm-9.622 7.067 9.538-6.93-.247-.341-9.538 6.93.248.341zM26.386 17.053a2.27 2.27 0 0 1 .173-.658c.093-.203.196-.358.311-.466l.285.208a1.72 1.72 0 0 0-.436.981c-.031.272-.011.472.059.601a.409.409 0 0 0 .322.218.304.304 0 0 0 .256-.076.592.592 0 0 0 .165-.246c.045-.105.086-.224.123-.355s.077-.263.122-.394c.044-.127.099-.242.166-.345a.758.758 0 0 1 .264-.24c.105-.054.239-.072.403-.054.156.017.291.077.404.177s.195.238.245.413c.053.179.066.389.039.632a2.088 2.088 0 0 1-.139.546 1.5 1.5 0 0 1-.242.436l-.291-.203c.101-.117.178-.246.231-.387.056-.141.093-.283.109-.428.029-.257.005-.453-.072-.586a.402.402 0 0 0-.317-.217.34.34 0 0 0-.267.069.765.765 0 0 0-.177.25 3.414 3.414 0 0 0-.123.355 5.02 5.02 0 0 1-.126.388c-.044.131-.1.248-.166.35a.625.625 0 0 1-.64.303.7.7 0 0 1-.419-.19.906.906 0 0 1-.238-.434 1.826 1.826 0 0 1-.026-.647zM28.356 21.102a1.31 1.31 0 0 1-.356.518.937.937 0 0 1-.531.236c-.208.027-.44-.011-.698-.114l-1.55-.62.145-.36 1.515.606c.281.112.522.126.721.041.202-.081.353-.248.456-.502.076-.19.104-.371.083-.544a.839.839 0 0 0-.2-.457 1.188 1.188 0 0 0-.473-.319l-1.403-.561.145-.361 3.771 1.508-.145.361-1.835-.734.166-.016c.159.162.255.358.289.587.037.231.004.475-.1.732zM24.198 22.446a1.51 1.51 0 0 1 .619-.463 1.43 1.43 0 0 1 .733-.075c.254.041.491.152.712.331.224.182.38.391.469.628s.113.479.07.727c-.042.248-.152.48-.33.698-.18.22-.388.376-.622.468-.237.094-.48.12-.728.078a1.491 1.491 0 0 1-.712-.331 1.496 1.496 0 0 1-.469-.628 1.373 1.373 0 0 1-.075-.73 1.51 1.51 0 0 1 .334-.702zm.268.217a1.094 1.094 0 0 0-.244.514.999.999 0 0 0 .067.541c.073.182.196.342.369.483.176.143.359.23.549.262a.983.983 0 0 0 .541-.047c.175-.064.328-.176.457-.334s.208-.329.236-.514c.031-.182.011-.362-.059-.542s-.193-.34-.369-.483a1.201 1.201 0 0 0-.549-.262 1.059 1.059 0 0 0-.548.048 1.086 1.086 0 0 0-.449.333zM21.663 24.742c.207-.137.425-.215.655-.232a1.3 1.3 0 0 1 .678.147c.219.117.416.306.591.567s.273.513.296.756c.025.247-.015.473-.119.678s-.261.378-.471.517a1.44 1.44 0 0 1-.714.252 1.303 1.303 0 0 1-.715-.142 1.52 1.52 0 0 1-.578-.529c-.162-.243-.253-.489-.271-.74s.029-.488.142-.713c.11-.222.279-.409.507-.561zm.66-1.682 2.19 3.27-.31.206-.481-.719-.288-.499-.368-.452L22 23.274l.324-.215zm-.445 1.953c-.17.113-.297.252-.38.417a1.046 1.046 0 0 0-.1.54c.016.195.087.385.21.57s.272.321.444.408c.172.087.352.125.538.115s.365-.072.535-.185c.17-.113.297-.255.381-.424.081-.168.114-.348.1-.54-.017-.19-.088-.377-.212-.562s-.271-.323-.443-.415a1.05 1.05 0 0 0-.538-.115 1.108 1.108 0 0 0-.536.193zM17.938 29.188c-.231.036-.44.022-.627-.041a.924.924 0 0 1-.473-.337c-.129-.165-.215-.384-.258-.658l-.257-1.65.384-.059.251 1.612c.047.299.157.513.332.641.172.132.393.177.664.136.202-.031.372-.1.511-.206a.833.833 0 0 0 .291-.405c.056-.164.067-.354.033-.57l-.233-1.493.384-.059.442 2.839-.368.057-.121-.779.082.137c-.058.22-.177.402-.358.548-.18.15-.407.246-.681.288zM14.62 26.308c.274.04.513.138.715.293.198.158.344.355.438.59.094.239.12.499.078.78-.042.285-.142.527-.301.725s-.355.342-.59.433a1.492 1.492 0 0 1-.769.075 1.493 1.493 0 0 1-.72-.294 1.33 1.33 0 0 1-.439-.585 1.485 1.485 0 0 1-.078-.78c.042-.282.142-.523.301-.725a1.37 1.37 0 0 1 .591-.439 1.53 1.53 0 0 1 .775-.074zm-.05.341a1.101 1.101 0 0 0-.567.055 1.009 1.009 0 0 0-.431.335 1.196 1.196 0 0 0-.227.564c-.033.224-.015.426.054.605a.964.964 0 0 0 .317.439c.145.117.319.191.521.22s.39.009.562-.061c.172-.067.318-.177.436-.329s.194-.34.227-.564c.033-.22.014-.422-.054-.605a1.046 1.046 0 0 0-.321-.446 1.075 1.075 0 0 0-.516-.214zM12.224 25.818l-.419 3.04-.327-.177.407-2.81.149.081-2.164 1.86-.294-.159.392-2.818.149.081-2.155 1.866-.313-.169 2.331-2.007.323.174-.35 2.66-.101-.055 2.05-1.742.323.174zM7.625 22.196c.139.192.244.393.315.603.068.212.096.396.083.554l-.352.037a1.686 1.686 0 0 0-.077-.498 1.78 1.78 0 0 0-.262-.52c-.16-.222-.31-.357-.449-.405a.41.41 0 0 0-.386.055.305.305 0 0 0-.139.228.604.604 0 0 0 .043.293c.038.108.087.223.148.345s.12.246.175.373c.053.123.09.246.11.366a.747.747 0 0 1-.034.355.697.697 0 0 1-.262.31c-.127.092-.267.138-.419.14s-.306-.045-.46-.141a1.594 1.594 0 0 1-.455-.441 2.076 2.076 0 0 1-.265-.497 1.463 1.463 0 0 1-.114-.484l.353-.045c.004.155.034.302.09.441.053.142.122.272.208.39.152.21.301.338.448.386a.404.404 0 0 0 .381-.052.337.337 0 0 0 .151-.23.759.759 0 0 0-.037-.304 3.283 3.283 0 0 0-.148-.345 5.163 5.163 0 0 1-.168-.372 1.525 1.525 0 0 1-.113-.371.62.62 0 0 1 .271-.653.698.698 0 0 1 .439-.14.916.916 0 0 1 .469.162c.156.104.308.257.456.461zM3.437 20.529a1.306 1.306 0 0 1-.085-.622.924.924 0 0 1 .235-.53c.135-.159.333-.287.593-.383l1.566-.579.136.364-1.53.566c-.284.105-.471.256-.562.453-.095.195-.095.42.001.677.071.192.173.345.305.459a.846.846 0 0 0 .456.205c.172.022.36-.005.566-.081l1.417-.524.136.364-3.809 1.409-.136-.364 1.853-.685-.112.123a1.037 1.037 0 0 1-.61-.241 1.369 1.369 0 0 1-.42-.609zM5.604 16.759c.015.277-.033.53-.145.759a1.414 1.414 0 0 1-.491.547 1.49 1.49 0 0 1-.749.232c-.288.016-.545-.035-.77-.15s-.406-.28-.542-.492a1.49 1.49 0 0 1-.226-.739 1.509 1.509 0 0 1 .145-.764c.112-.229.274-.411.486-.547.212-.139.462-.217.749-.232a1.51 1.51 0 0 1 .77.15c.225.112.408.276.547.491.136.216.212.464.227.744zm-.345.019a1.097 1.097 0 0 0-.167-.545 1.003 1.003 0 0 0-.414-.356 1.195 1.195 0 0 0-.598-.11 1.18 1.18 0 0 0-.583.174.971.971 0 0 0-.368.398c-.086.165-.124.35-.112.554s.068.384.172.539c.1.155.236.276.409.362s.372.122.598.11c.222-.012.416-.07.583-.174.162-.104.287-.238.373-.404.082-.165.118-.348.107-.548zM5.926 13.351c-.061.241-.17.445-.329.612a1.288 1.288 0 0 1-.601.346c-.241.06-.514.052-.818-.024s-.547-.197-.727-.362c-.184-.166-.306-.361-.367-.583s-.06-.455.001-.699c.067-.265.187-.488.359-.666a1.29 1.29 0 0 1 .625-.374c.243-.067.504-.066.784.004.283.071.516.193.698.366s.307.381.374.624c.068.239.068.491.002.756zm.642 1.689-3.818-.954.091-.361.839.21.548.177.576.088 1.859.464-.095.377zm-.983-1.746c.05-.198.05-.386.001-.564a1.042 1.042 0 0 0-.289-.467c-.143-.134-.323-.227-.539-.281s-.417-.055-.603-.004a1.043 1.043 0 0 0-.748.772c-.05.198-.049.388.003.571.053.179.149.334.289.467.141.129.319.221.535.275s.418.058.607.011c.186-.051.345-.143.476-.276.129-.137.218-.305.268-.503zM5.683 7.578c.147-.181.311-.311.493-.39a.932.932 0 0 1 .577-.069c.206.035.418.14.634.314l1.3 1.048-.245.302-1.27-1.024c-.236-.19-.462-.274-.678-.251-.216.018-.411.133-.583.345a1.094 1.094 0 0 0-.24.496.84.84 0 0 0 .056.495c.069.159.188.306.359.444l1.176.948-.245.302L4.78 8.735l.234-.289.614.495-.153-.046a1.027 1.027 0 0 1-.103-.646c.033-.231.136-.455.311-.67zM10.033 7.512a1.52 1.52 0 0 1-.727.263 1.434 1.434 0 0 1-.723-.141 1.497 1.497 0 0 1-.585-.524c-.161-.239-.25-.485-.267-.737s.032-.491.144-.716c.112-.225.285-.415.519-.572.236-.159.48-.247.731-.267.254-.021.494.024.72.137.229.11.424.285.585.524.159.236.248.482.267.737.019.251-.027.491-.141.721-.115.227-.29.419-.523.575zm-.193-.285c.173-.116.3-.256.383-.421.08-.168.111-.347.093-.537a1.19 1.19 0 0 0-.213-.569 1.188 1.188 0 0 0-.449-.411.975.975 0 0 0-.531-.112c-.186.011-.364.073-.534.187a1.051 1.051 0 0 0-.476.959c.015.192.086.382.213.569.125.184.274.321.449.411.173.086.352.124.539.113.184-.014.36-.077.527-.188zM12.183 6.236 10.45 3.699l.362-.087L12.4 5.97l-.165.04.354-2.828.325-.079 1.604 2.355-.165.04.343-2.826.346-.084-.379 3.048-.356.086-1.529-2.209.112-.027-.349 2.664-.356.086zM18.017 5.834a2.296 2.296 0 0 1-.638-.237 1.477 1.477 0 0 1-.433-.356l.236-.263a1.73 1.73 0 0 0 .933.53c.268.057.469.057.605.001a.407.407 0 0 0 .249-.299.305.305 0 0 0-.05-.263.605.605 0 0 0-.228-.189c-.1-.055-.214-.107-.341-.157s-.254-.103-.38-.16a1.558 1.558 0 0 1-.327-.199.754.754 0 0 1-.213-.286.692.692 0 0 1-.013-.406c.033-.153.105-.282.217-.385s.257-.171.436-.203c.183-.035.394-.028.633.023.182.039.359.103.53.192.172.085.308.18.409.283l-.232.27a1.257 1.257 0 0 0-.362-.268 1.61 1.61 0 0 0-.416-.15c-.253-.054-.45-.05-.591.014a.401.401 0 0 0-.248.294.337.337 0 0 0 .042.272.769.769 0 0 0 .231.201c.104.056.217.108.341.157.127.05.252.104.373.164.126.057.237.123.332.2a.615.615 0 0 1 .237.667.696.696 0 0 1-.231.398.908.908 0 0 1-.456.194 1.816 1.816 0 0 1-.647-.038zM22.287 4.274c.207.108.367.243.48.405.118.16.178.344.181.551.006.209-.056.436-.185.682l-.776 1.478-.345-.18.758-1.444c.141-.268.179-.506.114-.712-.06-.208-.211-.375-.454-.502a1.098 1.098 0 0 0-.534-.136.85.85 0 0 0-.476.153 1.192 1.192 0 0 0-.366.439l-.702 1.338-.345-.18 1.887-3.596.345.18-.918 1.75.001-.166c.178-.142.382-.218.615-.229.234-.014.474.043.72.172zM23.225 8.529a1.517 1.517 0 0 1-.402-.659 1.427 1.427 0 0 1-.003-.734c.066-.248.2-.472.401-.674.203-.204.428-.339.673-.404s.49-.065.733.001.465.198.664.396c.202.2.338.421.406.663.071.245.073.488.007.73-.064.245-.197.47-.401.674a1.502 1.502 0 0 1-.673.404 1.376 1.376 0 0 1-.737.003 1.53 1.53 0 0 1-.668-.399zm.244-.245c.148.146.311.244.49.292.181.046.363.041.547-.014.188-.055.361-.161.518-.319.16-.16.265-.333.316-.519a.958.958 0 0 0 .006-.541c-.047-.18-.143-.342-.289-.486s-.308-.238-.489-.284c-.179-.048-.361-.046-.547.006s-.359.158-.518.319a1.206 1.206 0 0 0-.316.519 1.044 1.044 0 0 0-.006.549c.05.178.146.337.289.478zM25.257 11.22a1.347 1.347 0 0 1-.17-.673c.008-.232.078-.452.211-.659.138-.206.345-.383.621-.531s.538-.222.783-.22c.248-.001.47.061.665.184s.352.296.472.517c.13.241.191.485.184.734-.002.25-.072.482-.209.696a1.508 1.508 0 0 1-.582.523c-.257.138-.512.204-.764.198s-.484-.076-.698-.21a1.443 1.443 0 0 1-.512-.558zm-1.616-.817 3.469-1.858.177.328-.762.408-.525.238-.486.322-1.689.904-.184-.342zm1.907.631c.097.18.224.319.38.417.16.097.336.147.529.151.196.003.392-.049.589-.154s.346-.239.449-.402c.103-.163.158-.337.166-.523s-.037-.369-.134-.549a1.043 1.043 0 0 0-.917-.57c-.191-.001-.385.051-.581.156s-.348.238-.456.4a1.047 1.047 0 0 0-.166.523 1.11 1.11 0 0 0 .142.551z"/>
    </symbol>
    <symbol id="icon-btn_tab_arrow" viewBox="0 0 32 32">
        <path d="M31.942 5.593a.653.653 0 0 0-.543-.747l-5.805-.919a.653.653 0 0 0-.204 1.29l5.16.817-.817 5.16a.653.653 0 0 0 1.29.204l.919-5.805zM1.037 28.283 31.681 6.019l-.768-1.057L.269 27.226l.768 1.057z"/>
    </symbol>
    <symbol id="icon-btn_tablet" viewBox="0 0 32 32">
        <path d="M21.741 13.667a.214.214 0 0 0-.177-.244l-1.896-.3a.214.214 0 0 0-.067.421l1.686.267-.267 1.686a.214.214 0 0 0 .421.067l.3-1.896zm-10.096 7.412 10.01-7.273-.251-.345-10.01 7.273.251.345zM28.728 16.802a1.58 1.58 0 0 1 .1-.467c.058-.145.126-.257.203-.337l.207.137a1.215 1.215 0 0 0-.274.702c-.013.192.008.331.061.42a.284.284 0 0 0 .233.142.215.215 0 0 0 .177-.061.417.417 0 0 0 .108-.178c.028-.075.053-.159.074-.253s.046-.187.072-.28c.026-.091.061-.173.105-.247a.535.535 0 0 1 .177-.177.502.502 0 0 1 .281-.051c.11.007.206.044.289.111s.145.161.186.282c.043.123.059.271.048.442-.009.13-.035.259-.079.387a1.05 1.05 0 0 1-.155.313l-.211-.133a.875.875 0 0 0 .149-.279c.035-.1.055-.202.062-.304.012-.181-.011-.318-.069-.409a.282.282 0 0 0-.229-.142.238.238 0 0 0-.185.057.533.533 0 0 0-.116.181 2.234 2.234 0 0 0-.074.253 3.499 3.499 0 0 1-.076.276 1.12 1.12 0 0 1-.105.251.431.431 0 0 1-.438.232.494.494 0 0 1-.3-.12.634.634 0 0 1-.181-.297 1.277 1.277 0 0 1-.039-.453zM30.393 19.45a.912.912 0 0 1-.195.395.653.653 0 0 1-.345.217.986.986 0 0 1-.496-.009l-1.138-.276.064-.265 1.112.27c.206.05.375.036.505-.044.132-.076.22-.207.266-.394a.77.77 0 0 0 .003-.387.6.6 0 0 0-.185-.298.83.83 0 0 0-.361-.174l-1.03-.25.064-.265 2.769.671-.064.265-1.347-.327.113-.028a.727.727 0 0 1 .26.379c.049.157.05.33.004.519zM27.628 21.162c.083-.176.196-.317.341-.421a.998.998 0 0 1 1.026-.072c.183.086.325.201.427.348s.159.307.172.483c.014.176-.021.353-.105.532a1.064 1.064 0 0 1-.343.425.92.92 0 0 1-.482.177 1.045 1.045 0 0 1-.54-.104 1.055 1.055 0 0 1-.427-.348.961.961 0 0 1-.176-.485 1.07 1.07 0 0 1 .106-.535zm.219.102a.761.761 0 0 0-.077.392c.013.13.059.249.138.357.081.111.192.2.333.266a.825.825 0 0 0 .418.085.678.678 0 0 0 .359-.125c.108-.074.192-.176.253-.305a.732.732 0 0 0-.061-.749.822.822 0 0 0-.333-.266.836.836 0 0 0-.418-.085.736.736 0 0 0-.364.126.747.747 0 0 0-.248.304zM26.346 23.326a.954.954 0 0 1 .375-.311.91.91 0 0 1 .482-.066c.172.025.348.102.525.232s.303.273.377.428c.076.157.104.315.084.476s-.081.312-.186.454c-.113.155-.25.268-.41.338a.908.908 0 0 1-.505.078 1.061 1.061 0 0 1-.508-.21c-.165-.121-.284-.262-.356-.423s-.098-.329-.078-.504c.019-.173.085-.337.199-.492zm.031-1.268 2.227 1.631-.154.211-.489-.358-.31-.26-.351-.209-1.084-.794.161-.22zm.176 1.395a.765.765 0 0 0-.15.366.738.738 0 0 0 .064.38c.058.125.15.233.276.326s.256.146.391.162c.134.016.262-.002.382-.053s.223-.135.308-.251a.76.76 0 0 0 .149-.372.738.738 0 0 0-.064-.38c-.057-.121-.149-.228-.275-.32s-.256-.148-.391-.168a.739.739 0 0 0-.382.053.782.782 0 0 0-.307.256zM25.187 27.412a.919.919 0 0 1-.399.187.654.654 0 0 1-.405-.046.976.976 0 0 1-.381-.317l-.717-.926.216-.167.7.905c.13.168.27.262.421.281.15.023.302-.024.454-.142a.78.78 0 0 0 .244-.3.588.588 0 0 0 .042-.348.831.831 0 0 0-.173-.361l-.649-.838.216-.167 1.234 1.594-.207.16-.338-.437.097.056a.722.722 0 0 1-.034.458.963.963 0 0 1-.321.408zM21.979 27.014c.174-.087.351-.126.529-.118.178.012.341.066.49.163.15.1.27.239.359.417.09.181.13.36.119.537s-.067.339-.165.486a1.049 1.049 0 0 1-.412.352 1.06 1.06 0 0 1-.532.12.93.93 0 0 1-.488-.16 1.038 1.038 0 0 1-.359-.417 1.062 1.062 0 0 1-.119-.538.964.964 0 0 1 .163-.489c.101-.148.239-.265.416-.354zm.108.216a.761.761 0 0 0-.304.259.701.701 0 0 0-.113.366.84.84 0 0 0 .096.416.826.826 0 0 0 .275.326.68.68 0 0 0 .359.126c.131.009.26-.018.388-.082a.741.741 0 0 0 .418-.625.829.829 0 0 0-.096-.416.845.845 0 0 0-.275-.326.729.729 0 0 0-.364-.127.755.755 0 0 0-.383.084zM20.273 27.773l1.228 1.771-.253.063-1.126-1.646.115-.029-.234 1.987-.227.057-1.137-1.643.115-.029-.227 1.985-.242.061.251-2.141.25-.063 1.084 1.542-.078.02.231-1.871.25-.063zM16.025 28.327c.166.005.323.033.47.084.147.053.261.117.344.191l-.129.211a1.248 1.248 0 0 0-.711-.249c-.192-.006-.331.019-.417.075a.286.286 0 0 0-.134.238.214.214 0 0 0 .068.175.424.424 0 0 0 .181.102c.076.025.161.047.255.066s.188.039.282.063c.091.023.175.055.251.096.076.043.137.1.183.171a.496.496 0 0 1 .061.279c-.003.11-.037.208-.101.293s-.156.15-.275.195a1.13 1.13 0 0 1-.44.063 1.476 1.476 0 0 1-.39-.066 1.056 1.056 0 0 1-.318-.144l.126-.215a.873.873 0 0 0 .284.139c.101.031.203.049.306.052.182.006.317-.022.406-.084a.284.284 0 0 0 .134-.234.238.238 0 0 0-.064-.183.527.527 0 0 0-.185-.109 2.623 2.623 0 0 0-.255-.066 3.212 3.212 0 0 1-.278-.066 1.047 1.047 0 0 1-.254-.096.44.44 0 0 1-.248-.43.494.494 0 0 1 .109-.304.638.638 0 0 1 .29-.191c.124-.042.275-.061.451-.055zM13.448 30.081a.918.918 0 0 1-.402-.181.652.652 0 0 1-.228-.337.979.979 0 0 1-.007-.496l.237-1.147.267.055-.232 1.12c-.043.208-.023.376.061.503.081.129.215.213.403.252a.78.78 0 0 0 .386-.01.594.594 0 0 0 .291-.195.834.834 0 0 0 .162-.366l.215-1.038.267.055-.577 2.79-.267-.055.281-1.357.032.112a.726.726 0 0 1-.37.273.955.955 0 0 1-.518.022zM11.667 27.387c.179.076.324.184.434.325a.996.996 0 0 1 .11 1.022c-.079.186-.189.333-.332.439s-.301.17-.477.19a1.063 1.063 0 0 1-.536-.084 1.054 1.054 0 0 1-.437-.327.929.929 0 0 1-.195-.474 1.035 1.035 0 0 1 .084-.544 1.05 1.05 0 0 1 .332-.439.958.958 0 0 1 .478-.194c.178-.019.357.009.539.086zm-.095.223a.771.771 0 0 0-.395-.063.707.707 0 0 0-.352.151.846.846 0 0 0-.254.343.833.833 0 0 0-.07.421.675.675 0 0 0 .138.354c.078.105.183.186.315.241s.263.075.393.058c.129-.015.247-.064.354-.147s.192-.197.254-.343a.846.846 0 0 0 .07-.421.728.728 0 0 0-.14-.359.746.746 0 0 0-.313-.236zM9.458 26.187a.947.947 0 0 1 .324.364.9.9 0 0 1 .083.479c-.018.173-.089.351-.213.533s-.262.313-.414.392c-.154.081-.312.115-.473.102s-.315-.07-.461-.169a1.02 1.02 0 0 1-.353-.397.9.9 0 0 1-.096-.501c.014-.176.078-.348.192-.515.115-.169.252-.293.41-.372s.325-.11.502-.096c.174.013.34.073.499.18zm1.269-.017-1.551 2.284-.216-.147.341-.502.249-.319.197-.358.755-1.112.226.153zm-1.389.228a.768.768 0 0 0-.372-.136.736.736 0 0 0-.378.078c-.123.062-.228.158-.316.287s-.137.261-.148.396a.732.732 0 0 0 .329.678.77.77 0 0 0 .377.135.736.736 0 0 0 .378-.078c.119-.061.223-.157.31-.286s.139-.262.153-.397a.735.735 0 0 0-.067-.38.772.772 0 0 0-.267-.297zM5.334 25.181a.921.921 0 0 1-.202-.392.646.646 0 0 1 .032-.406.986.986 0 0 1 .303-.392l.9-.749.175.209-.88.732c-.163.136-.252.279-.266.431-.017.151.035.3.158.448.092.11.195.188.309.233a.592.592 0 0 0 .349.029.831.831 0 0 0 .355-.186l.815-.678.175.209-1.55 1.29-.167-.201.425-.354-.053.099a.73.73 0 0 1-.459-.017.966.966 0 0 1-.42-.305zM5.618 21.97c.093.171.139.345.138.524a.994.994 0 0 1-.549.869c-.178.097-.355.143-.533.138s-.342-.054-.492-.147-.272-.226-.367-.399a1.05 1.05 0 0 1-.14-.527.928.928 0 0 1 .142-.493 1.04 1.04 0 0 1 .404-.374c.175-.096.353-.142.533-.138a.96.96 0 0 1 .495.145c.151.095.274.229.369.402zm-.213.116a.77.77 0 0 0-.27-.294.709.709 0 0 0-.37-.1.837.837 0 0 0-.412.111.827.827 0 0 0-.316.287.674.674 0 0 0-.112.363c-.004.131.028.259.097.385s.16.222.272.289c.11.068.233.103.368.105s.273-.035.412-.111a.84.84 0 0 0 .316-.287.746.746 0 0 0 .114-.368.764.764 0 0 0-.098-.38zM4.793 20.3l-1.728 1.287-.072-.251 1.606-1.18.033.114-1.994-.167-.065-.225 1.603-1.191.033.114-1.992-.159-.069-.24 2.149.178.071.247-1.504 1.135-.022-.078 1.878.168.071.247zM4.084 16.147c.001.166-.021.324-.065.473a1.027 1.027 0 0 1-.178.351l-.216-.121a1.233 1.233 0 0 0 .221-.72c-.001-.192-.032-.33-.092-.414a.285.285 0 0 0-.243-.125c-.074.001-.132.025-.172.074a.421.421 0 0 0-.095.185c-.022.077-.041.163-.056.258s-.032.19-.052.285a1.15 1.15 0 0 1-.086.254.526.526 0 0 1-.164.189.49.49 0 0 1-.276.071c-.11.001-.209-.029-.296-.09s-.156-.15-.206-.267a1.114 1.114 0 0 1-.08-.437 1.466 1.466 0 0 1 .051-.392c.032-.131.076-.239.132-.324l.22.117a.86.86 0 0 0-.128.289 1.163 1.163 0 0 0-.04.308c.001.182.034.316.099.402a.282.282 0 0 0 .239.125.239.239 0 0 0 .18-.07.531.531 0 0 0 .102-.189 2.42 2.42 0 0 0 .056-.258c.015-.095.033-.188.055-.281.02-.095.049-.181.086-.258a.44.44 0 0 1 .42-.264.496.496 0 0 1 .308.097.634.634 0 0 1 .202.283c.047.123.071.272.073.449zM2.229 13.611a.905.905 0 0 1 .166-.408.65.65 0 0 1 .328-.241.988.988 0 0 1 .495-.027l1.155.193-.045.269-1.129-.188c-.21-.035-.376-.008-.5.08-.126.085-.205.223-.236.412a.773.773 0 0 0 .025.386.588.588 0 0 0 .206.283.849.849 0 0 0 .372.148l1.045.174-.045.269-2.811-.468.045-.269 1.367.228-.111.036a.721.721 0 0 1-.286-.359.961.961 0 0 1-.042-.517zM4.849 11.727c-.069.182-.172.33-.309.445a1.001 1.001 0 0 1-1.018.148c-.189-.072-.34-.177-.451-.315s-.181-.295-.208-.469a1.046 1.046 0 0 1 .065-.538c.071-.187.174-.336.31-.449a.938.938 0 0 1 .467-.213c.175-.029.358-.008.547.064.187.071.337.176.451.315a.966.966 0 0 1 .212.47 1.07 1.07 0 0 1-.066.542zm-.226-.085a.768.768 0 0 0 .048-.397.708.708 0 0 0-.164-.346.837.837 0 0 0-.352-.24.836.836 0 0 0-.423-.054.676.676 0 0 0-.349.151c-.102.082-.179.19-.23.324a.74.74 0 0 0 .116.742.824.824 0 0 0 .352.24.853.853 0 0 0 .423.054.735.735 0 0 0 .354-.153.76.76 0 0 0 .225-.321zM5.964 9.47a.938.938 0 0 1-.352.337.902.902 0 0 1-.476.101c-.174-.012-.354-.076-.541-.193s-.322-.25-.407-.399c-.087-.151-.126-.307-.119-.468s.058-.317.152-.467c.102-.163.23-.285.384-.367a.903.903 0 0 1 .498-.114c.176.008.35.065.522.172.174.109.302.241.386.396s.122.321.114.497a1.005 1.005 0 0 1-.163.505zm.063 1.267L3.686 9.273l.139-.221.514.322.328.237.365.183 1.139.713-.145.231zm-.278-1.379a.757.757 0 0 0 .122-.376.728.728 0 0 0-.092-.374c-.067-.12-.166-.222-.299-.304s-.266-.127-.401-.133c-.135-.006-.261.021-.377.081s-.212.151-.289.272a.728.728 0 0 0-.029.756c.066.117.165.216.297.299s.267.129.403.139a.736.736 0 0 0 .377-.081.786.786 0 0 0 .287-.278zM6.82 5.304a.917.917 0 0 1 .384-.215.653.653 0 0 1 .407.017.982.982 0 0 1 .403.288l.782.872-.203.182-.764-.852c-.142-.158-.289-.241-.441-.25-.152-.012-.299.046-.442.174a.76.76 0 0 0-.221.317.587.587 0 0 0-.016.35c.03.118.096.234.199.348l.708.789-.203.182-1.346-1.5.195-.174.369.412-.101-.049a.714.714 0 0 1 .001-.459.955.955 0 0 1 .29-.43zM10.019 5.478c-.167.099-.34.152-.519.157a.992.992 0 0 1-.5-.127 1.047 1.047 0 0 1-.389-.39c-.104-.174-.156-.349-.158-.527s.041-.343.129-.497a1.05 1.05 0 0 1 .385-.381c.172-.102.346-.155.522-.159a.936.936 0 0 1 .498.123c.156.086.285.216.389.39.102.172.155.347.158.527a.953.953 0 0 1-.127.5c-.09.155-.219.282-.389.383zm-.123-.208a.773.773 0 0 0 .284-.281.706.706 0 0 0 .086-.373.838.838 0 0 0-.127-.407.832.832 0 0 0-.298-.305.69.69 0 0 0-.367-.099c-.131 0-.258.037-.381.111s-.216.167-.279.282c-.064.113-.095.236-.091.372s.045.271.127.407a.84.84 0 0 0 .298.305.74.74 0 0 0 .373.1.76.76 0 0 0 .376-.112zM11.65 4.586l-1.352-1.678.248-.081 1.241 1.561-.113.037.09-1.998.223-.073 1.252 1.557-.113.037.083-1.996.237-.078-.096 2.153-.244.08-1.192-1.46.077-.025-.096 1.883-.244.08zM15.819 3.708a1.58 1.58 0 0 1-.475-.049 1.023 1.023 0 0 1-.357-.166l.114-.22a1.215 1.215 0 0 0 .727.196c.192-.008.329-.043.411-.106a.283.283 0 0 0 .116-.247.215.215 0 0 0-.08-.17.416.416 0 0 0-.188-.088c-.078-.02-.164-.035-.259-.047s-.191-.025-.286-.042a1.07 1.07 0 0 1-.257-.078.544.544 0 0 1-.195-.157.491.491 0 0 1-.081-.273c-.005-.11.022-.21.079-.299s.144-.161.26-.215c.118-.056.263-.088.434-.095.13-.006.262.007.394.037.132.028.241.068.328.121l-.11.224a.873.873 0 0 0-.293-.118 1.12 1.12 0 0 0-.309-.029c-.182.008-.315.045-.399.113a.282.282 0 0 0-.117.243.233.233 0 0 0 .077.177c.05.041.115.073.192.096.08.02.167.035.259.047.095.011.189.027.283.046.096.016.182.042.261.077a.434.434 0 0 1 .279.411.49.49 0 0 1-.087.311.632.632 0 0 1-.275.212 1.278 1.278 0 0 1-.446.088zM18.306 1.762c.162.021.3.072.414.151.116.077.2.184.252.32a.979.979 0 0 1 .043.494l-.153 1.161-.27-.036.15-1.135c.028-.211-.005-.376-.097-.497-.09-.123-.23-.197-.42-.222a.775.775 0 0 0-.385.038.592.592 0 0 0-.276.215.832.832 0 0 0-.135.377l-.139 1.051-.27-.036.373-2.825.27.036-.181 1.374-.04-.11a.73.73 0 0 1 .349-.299.966.966 0 0 1 .515-.06zM20.319 4.322a1.074 1.074 0 0 1-.456-.293.998.998 0 0 1-.182-1.011c.065-.191.165-.345.3-.462s.288-.191.462-.224c.174-.033.354-.017.54.046.189.064.342.163.459.295.12.133.196.286.229.459.035.174.02.357-.045.548a1.053 1.053 0 0 1-.3.462.957.957 0 0 1-.463.227 1.077 1.077 0 0 1-.544-.047zm.078-.229a.764.764 0 0 0 .398.034.71.71 0 0 0 .34-.176.843.843 0 0 0 .229-.36.843.843 0 0 0 .04-.425.685.685 0 0 0-.163-.344c-.085-.099-.195-.172-.331-.218a.74.74 0 0 0-.739.142.828.828 0 0 0-.229.36.85.85 0 0 0-.04.425c.025.133.08.249.165.348a.763.763 0 0 0 .329.214zM22.557 5.325a.943.943 0 0 1-.35-.339.897.897 0 0 1-.118-.471c.006-.174.064-.356.173-.547s.238-.331.385-.421c.148-.092.302-.138.464-.136s.319.046.472.134c.166.096.293.219.381.37.091.15.135.314.132.493a1.065 1.065 0 0 1-.153.528c-.102.177-.229.311-.382.401s-.316.134-.493.133a1.01 1.01 0 0 1-.511-.144zm-1.265.11 1.379-2.392.226.13-.303.526-.225.336-.17.372-.671 1.164-.236-.136zm1.369-.329a.75.75 0 0 0 .381.108.746.746 0 0 0 .371-.105c.118-.071.216-.174.294-.309s.118-.271.119-.406a.73.73 0 0 0-.378-.652.768.768 0 0 0-.386-.107.746.746 0 0 0-.371.105c-.114.07-.211.173-.288.308s-.119.271-.124.407a.73.73 0 0 0 .095.374.79.79 0 0 0 .288.277zM26.775 6.035c.114.118.19.243.23.376a.651.651 0 0 1-.002.407.98.98 0 0 1-.274.413l-.844.813-.189-.196.824-.794c.153-.147.231-.297.234-.449.006-.152-.057-.297-.191-.435a.783.783 0 0 0-.325-.21.599.599 0 0 0-.351-.004.837.837 0 0 0-.341.211l-.763.735-.189-.196 1.452-1.399.181.188-.398.384.045-.102a.724.724 0 0 1 .46-.016.966.966 0 0 1 .441.274zM26.766 9.304a1.063 1.063 0 0 1-.174-.513 1 1 0 0 1 .11-.504c.083-.16.209-.293.377-.401.17-.109.344-.167.522-.175s.345.03.501.112c.156.082.288.206.394.372.108.168.167.34.176.516a.937.937 0 0 1-.107.502 1.036 1.036 0 0 1-.377.401 1.052 1.052 0 0 1-.522.175.959.959 0 0 1-.504-.11 1.06 1.06 0 0 1-.396-.376zm.203-.13a.783.783 0 0 0 .29.275.712.712 0 0 0 .376.074.846.846 0 0 0 .403-.14.823.823 0 0 0 .295-.308.674.674 0 0 0 .086-.37c-.005-.131-.046-.256-.123-.377a.736.736 0 0 0-.667-.348.832.832 0 0 0-.403.14.832.832 0 0 0-.295.308.745.745 0 0 0-.088.375.76.76 0 0 0 .125.372zM27.705 10.903l1.631-1.407.09.245-1.518 1.292-.041-.112 2.001.024.081.22-1.514 1.303-.041-.112 1.998.016.086.234-2.156-.024-.089-.242 1.419-1.239.028.076-1.886-.033-.089-.242z"/>
    </symbol>
    <symbol id="icon-now-shop-desk" viewBox="0 0 32 32">
        <path d="M28.663 16.733c.009-.15.038-.291.087-.422a.955.955 0 0 1 .181-.306l.188.122a1.08 1.08 0 0 0-.162.276 1.137 1.137 0 0 0-.08.36c-.01.173.009.299.058.379a.26.26 0 0 0 .212.127.193.193 0 0 0 .16-.057.37.37 0 0 0 .096-.161c.025-.068.047-.144.065-.229s.04-.169.063-.254a.958.958 0 0 1 .093-.224.48.48 0 0 1 .159-.161.444.444 0 0 1 .253-.048c.099.006.187.039.262.099s.132.144.169.253c.04.111.056.244.046.399-.007.118-.03.235-.069.351a.952.952 0 0 1-.138.284l-.191-.119a.82.82 0 0 0 .133-.253c.031-.091.049-.183.054-.275.009-.164-.012-.287-.066-.369a.256.256 0 0 0-.208-.127.213.213 0 0 0-.166.053.475.475 0 0 0-.103.164c-.025.07-.047.147-.066.229a2.964 2.964 0 0 1-.067.25c-.024.084-.055.16-.093.227a.397.397 0 0 1-.395.214.447.447 0 0 1-.272-.106.565.565 0 0 1-.165-.267 1.17 1.17 0 0 1-.039-.409zM30.209 19.111a.83.83 0 0 1-.166.362.591.591 0 0 1-.306.204.886.886 0 0 1-.448.003l-1.035-.222.052-.241 1.011.217c.188.04.339.023.455-.051.117-.072.194-.193.23-.362a.694.694 0 0 0-.007-.349.534.534 0 0 0-.174-.264.752.752 0 0 0-.33-.149l-.936-.201.052-.241 2.517.54-.052.241-1.225-.263.102-.028a.653.653 0 0 1 .244.336c.048.14.054.297.017.468zM27.766 20.76a.957.957 0 0 1 .289-.395.898.898 0 0 1 .922-.109c.169.069.302.168.4.295s.157.27.177.429a.957.957 0 0 1-.071.485.941.941 0 0 1-.291.398.84.84 0 0 1-.427.181.935.935 0 0 1-.492-.071.95.95 0 0 1-.4-.295.86.86 0 0 1-.18-.43.977.977 0 0 1 .072-.488zm.203.083a.707.707 0 0 0-.053.357.641.641 0 0 0 .14.316.769.769 0 0 0 .312.226c.133.054.26.074.381.059a.616.616 0 0 0 .319-.128c.094-.071.166-.167.215-.287a.67.67 0 0 0-.088-.673.76.76 0 0 0-.312-.226.762.762 0 0 0-.381-.059.663.663 0 0 0-.323.13.678.678 0 0 0-.21.285zM26.715 22.804a.848.848 0 0 1 .319-.303.824.824 0 0 1 .43-.09c.157.011.32.07.488.176s.29.227.366.362c.078.137.113.278.106.424s-.053.286-.139.421a.914.914 0 0 1-.348.33.825.825 0 0 1-.45.102.965.965 0 0 1-.471-.158c-.157-.099-.272-.218-.348-.359s-.109-.291-.102-.45a.915.915 0 0 1 .148-.456zm-.053-1.145 2.11 1.331-.126.2-.464-.293-.295-.215-.33-.167-1.027-.648.132-.208zm.247 1.248a.7.7 0 0 0-.112.34.67.67 0 0 0 .082.339c.06.109.149.201.269.276s.24.116.362.122a.662.662 0 0 0 .602-.317.69.69 0 0 0 .111-.344.67.67 0 0 0-.082-.339c-.059-.106-.148-.196-.268-.272s-.24-.117-.363-.127a.662.662 0 0 0-.341.072.714.714 0 0 0-.26.25zM25.988 26.58a.83.83 0 0 1-.342.205.594.594 0 0 1-.368-.004.892.892 0 0 1-.372-.25l-.729-.767.178-.17.712.749c.132.139.267.21.404.214.137.007.269-.05.395-.169a.689.689 0 0 0 .191-.292.535.535 0 0 0 .006-.317.765.765 0 0 0-.188-.309l-.66-.694.178-.17 1.255 1.32-.171.163-.344-.362.092.041a.655.655 0 0 1 .012.415.865.865 0 0 1-.251.396zM23.062 26.552a.956.956 0 0 1 .461-.166.9.9 0 0 1 .826.425c.101.152.157.308.167.469s-.021.312-.093.454a.955.955 0 0 1-.33.362.961.961 0 0 1-.464.168.848.848 0 0 1-.455-.088.944.944 0 0 1-.369-.334.953.953 0 0 1-.167-.469.866.866 0 0 1 .091-.457.97.97 0 0 1 .333-.364zm.121.181a.686.686 0 0 0-.243.267.641.641 0 0 0-.06.341c.01.124.055.244.133.362.08.119.174.206.283.262a.62.62 0 0 0 .336.072c.118-.006.231-.046.339-.118s.187-.161.239-.268c.052-.105.074-.218.065-.34s-.053-.242-.133-.362a.765.765 0 0 0-.283-.262.67.67 0 0 0-.341-.073.676.676 0 0 0-.334.119zM21.597 27.447l1.332 1.42-.218.09-1.224-1.322.099-.041.054 1.807-.195.081-1.234-1.318.099-.041.06 1.804-.208.086-.059-1.947.215-.089 1.172 1.235-.067.028-.041-1.703.215-.089zM17.898 28.556c.149-.022.293-.022.431-.001a.937.937 0 0 1 .336.115l-.082.209a1.106 1.106 0 0 0-.672-.108c-.172.025-.291.07-.359.134a.257.257 0 0 0-.081.233c.01.067.039.115.088.145a.376.376 0 0 0 .177.061c.072.01.151.016.238.018s.174.005.261.011a.94.94 0 0 1 .238.046.473.473 0 0 1 .19.123c.05.056.083.135.098.238.015.098 0 .19-.043.276s-.115.158-.213.217a.994.994 0 0 1-.381.126 1.332 1.332 0 0 1-.357.003.937.937 0 0 1-.306-.078l.078-.211a1.008 1.008 0 0 0 .555.076c.163-.024.278-.07.348-.139a.257.257 0 0 0 .082-.23.212.212 0 0 0-.086-.152.49.49 0 0 0-.182-.068 2.156 2.156 0 0 0-.238-.018 2.75 2.75 0 0 1-.258-.015 1.01 1.01 0 0 1-.242-.045.393.393 0 0 1-.289-.343.443.443 0 0 1 .049-.288.569.569 0 0 1 .228-.216c.104-.057.235-.098.393-.121zM15.845 30.552a.826.826 0 0 1-.388-.09.59.59 0 0 1-.262-.259.888.888 0 0 1-.094-.438l.008-1.058.246.002-.008 1.034c-.001.192.046.337.142.435.094.1.228.151.401.152a.703.703 0 0 0 .341-.077.537.537 0 0 0 .224-.224.751.751 0 0 0 .079-.353l.007-.958.246.002-.02 2.574-.246-.002.01-1.252.048.094a.649.649 0 0 1-.28.306.875.875 0 0 1-.455.111zM13.76 28.499a.965.965 0 0 1 .446.201.902.902 0 0 1 .298.88c-.033.18-.102.331-.206.453s-.232.209-.383.262a.953.953 0 0 1-.489.031.968.968 0 0 1-.45-.202.845.845 0 0 1-.266-.38.934.934 0 0 1-.033-.496.95.95 0 0 1 .206-.453.865.865 0 0 1 .384-.265.966.966 0 0 1 .492-.03zm-.04.215a.698.698 0 0 0-.36.022.632.632 0 0 0-.28.203.755.755 0 0 0-.156.353.748.748 0 0 0 .021.385c.038.115.101.21.191.285.089.077.198.128.325.151s.247.014.358-.026c.111-.039.205-.105.283-.199s.13-.211.156-.352a.773.773 0 0 0-.021-.385.673.673 0 0 0-.194-.29.687.687 0 0 0-.322-.147zM11.543 27.891a.868.868 0 0 1 .363.249.816.816 0 0 1 .176.402c.021.156-.003.327-.072.514s-.162.331-.279.433c-.118.104-.249.168-.393.191s-.291.007-.441-.049a.913.913 0 0 1-.395-.272.809.809 0 0 1-.192-.419.972.972 0 0 1 .057-.493c.064-.174.158-.312.28-.414s.262-.167.419-.192a.921.921 0 0 1 .477.051zm1.11-.287-.868 2.339-.221-.082.191-.514.149-.333.095-.357.422-1.139.231.086zm-1.169.499a.698.698 0 0 0-.355-.04.668.668 0 0 0-.315.15c-.094.081-.166.188-.215.32s-.064.259-.045.38a.656.656 0 0 0 .435.524.69.69 0 0 0 .36.037.668.668 0 0 0 .315-.15c.091-.08.161-.186.21-.318s.065-.259.049-.381a.656.656 0 0 0-.141-.319.71.71 0 0 0-.298-.203zM7.697 27.95a.82.82 0 0 1-.27-.293.59.59 0 0 1-.07-.361.879.879 0 0 1 .17-.414l.604-.869.202.141-.59.849c-.109.158-.152.304-.128.439.021.136.103.253.246.352a.687.687 0 0 0 .325.128.532.532 0 0 0 .311-.059.766.766 0 0 0 .265-.247l.546-.787.202.141-1.039 1.496-.194-.135.285-.41-.022.099a.654.654 0 0 1-.404.095.874.874 0 0 1-.439-.165zM7.135 25.083c.125.123.21.263.256.418a.898.898 0 0 1 .003.466.95.95 0 0 1-.252.429c-.128.13-.27.216-.425.258s-.31.042-.464.001a.94.94 0 0 1-.421-.25.947.947 0 0 1-.258-.42.85.85 0 0 1-.006-.464.942.942 0 0 1 .252-.429.95.95 0 0 1 .425-.258.858.858 0 0 1 .466-.003.966.966 0 0 1 .424.252zm-.153.156a.637.637 0 0 0-.657-.174.755.755 0 0 0-.327.204.746.746 0 0 0-.199.33.61.61 0 0 0-.002.344c.03.114.092.217.184.308a.662.662 0 0 0 .657.174.739.739 0 0 0 .327-.204.773.773 0 0 0 .199-.33.656.656 0 0 0 .002-.349.678.678 0 0 0-.184-.303zM5.965 23.838l-1.116 1.595-.133-.195 1.043-1.469.061.089-1.757.424-.119-.175 1.037-1.478.061.089-1.753.43-.127-.186 1.894-.458.131.192-.967 1.401-.041-.06 1.659-.39.131.192zM4.116 20.45c.052.141.082.281.09.422a.95.95 0 0 1-.043.353l-.221-.037a1.106 1.106 0 0 0-.033-.679c-.06-.163-.129-.27-.205-.323a.257.257 0 0 0-.245-.031.19.19 0 0 0-.123.116.382.382 0 0 0-.023.186c.005.072.015.151.032.236s.031.171.044.258a.987.987 0 0 1 .005.242.477.477 0 0 1-.081.211.441.441 0 0 1-.212.145c-.093.035-.186.04-.279.015s-.179-.079-.257-.164a1.01 1.01 0 0 1-.203-.347 1.352 1.352 0 0 1-.078-.349.95.95 0 0 1 .012-.316l.223.032a.786.786 0 0 0-.02.285c.008.096.029.187.061.274.057.154.126.258.208.312a.258.258 0 0 0 .242.033.214.214 0 0 0 .131-.115.48.48 0 0 0 .029-.192 1.924 1.924 0 0 0-.032-.236 2.775 2.775 0 0 1-.039-.256 1.024 1.024 0 0 1-.006-.246.391.391 0 0 1 .276-.354.445.445 0 0 1 .292-.012.575.575 0 0 1 .259.178c.078.09.144.209.2.359zM1.749 18.896a.83.83 0 0 1 .008-.398.588.588 0 0 1 .199-.309.895.895 0 0 1 .409-.182l1.037-.21.049.241-1.013.205c-.188.038-.32.114-.396.229-.079.113-.101.254-.066.424a.69.69 0 0 0 .146.317.54.54 0 0 0 .265.173.756.756 0 0 0 .362.005l.939-.19.049.241-2.523.511-.049-.242 1.228-.249-.082.066a.657.657 0 0 1-.358-.211.865.865 0 0 1-.203-.423zM3.326 16.435a.952.952 0 0 1-.105.478.89.89 0 0 1-.321.338.942.942 0 0 1-.479.134c-.183.005-.344-.031-.485-.108s-.253-.184-.335-.321a.954.954 0 0 1-.131-.472.953.953 0 0 1 .105-.482.846.846 0 0 1 .317-.338.938.938 0 0 1 .479-.134.95.95 0 0 1 .485.108.862.862 0 0 1 .338.321.972.972 0 0 1 .131.475zm-.218.006a.706.706 0 0 0-.096-.348.64.64 0 0 0-.256-.233.76.76 0 0 0-.377-.08.751.751 0 0 0-.372.1.617.617 0 0 0-.24.246c-.057.103-.084.22-.081.349a.663.663 0 0 0 .353.58.75.75 0 0 0 .377.08.763.763 0 0 0 .372-.1.655.655 0 0 0 .243-.25.678.678 0 0 0 .077-.346zM3.46 14.124a.853.853 0 0 1-.169.407.825.825 0 0 1-.357.256c-.148.053-.321.065-.517.036s-.357-.09-.482-.183c-.127-.093-.216-.208-.268-.345s-.067-.283-.044-.441a.91.91 0 0 1 .185-.443.82.82 0 0 1 .37-.275.953.953 0 0 1 .494-.046c.183.027.338.089.463.187s.218.221.275.37a.916.916 0 0 1 .049.477zm.512 1.025-2.468-.363.034-.233.542.08.357.077.369.019 1.201.177-.036.244zm-.731-1.04a.693.693 0 0 0-.035-.356.666.666 0 0 0-.212-.277c-.099-.075-.218-.123-.358-.144s-.266-.009-.381.035a.665.665 0 0 0-.423.534.69.69 0 0 0 .038.36.666.666 0 0 0 .212.277c.097.073.215.119.355.14s.267.01.383-.031a.669.669 0 0 0 .283-.204.717.717 0 0 0 .137-.334zM2.613 10.342a.842.842 0 0 1 .231-.324.59.59 0 0 1 .339-.143.878.878 0 0 1 .441.081l.975.412-.096.227-.952-.403c-.177-.075-.329-.086-.456-.035-.129.049-.227.153-.294.313a.703.703 0 0 0-.059.344c.01.107.05.205.121.292.07.085.168.154.296.208l.882.373-.096.227-1.678-.71.092-.217.46.195-.101-.001a.65.65 0 0 1-.176-.376.86.86 0 0 1 .072-.463zM5.302 9.207a.959.959 0 0 1-.357.335.9.9 0 0 1-.927-.062c-.153-.099-.267-.22-.339-.364s-.104-.295-.095-.454a.94.94 0 0 1 .159-.463.955.955 0 0 1 .359-.338.846.846 0 0 1 .453-.1.936.936 0 0 1 .471.16.941.941 0 0 1 .339.364.871.871 0 0 1 .098.456.966.966 0 0 1-.161.466zm-.183-.119a.688.688 0 0 0 .117-.341.638.638 0 0 0-.08-.337.752.752 0 0 0-.266-.279.755.755 0 0 0-.364-.128.617.617 0 0 0-.337.067c-.106.053-.194.134-.264.242s-.108.222-.113.34c-.007.117.018.229.075.338s.145.201.266.279c.119.077.24.119.364.128a.676.676 0 0 0 .342-.068.685.685 0 0 0 .259-.241zM6.277 7.809l-1.788-.77.164-.17 1.65.723-.075.077-.771-1.635.147-.152 1.657.716-.075.077-.776-1.63.157-.162.832 1.761-.161.167-1.568-.663.051-.052.718 1.545-.161.167zM9.187 5.322c-.127.08-.259.139-.394.175a.947.947 0 0 1-.354.031l-.01-.224a1.086 1.086 0 0 0 .658-.174c.147-.093.238-.182.274-.267a.258.258 0 0 0-.02-.246.193.193 0 0 0-.139-.097.373.373 0 0 0-.187.016c-.07.019-.145.046-.224.08s-.161.066-.243.096a.993.993 0 0 1-.236.055.48.48 0 0 1-.223-.035.44.44 0 0 1-.186-.178c-.053-.084-.077-.174-.072-.27s.041-.191.107-.285a1.01 1.01 0 0 1 .297-.27c.1-.063.208-.112.325-.148a.943.943 0 0 1 .311-.053l.015.225a.792.792 0 0 0-.283.039 1.018 1.018 0 0 0-.255.116c-.139.088-.226.177-.262.268a.254.254 0 0 0 .018.243.214.214 0 0 0 .14.105c.058.01.123.006.194-.011a1.96 1.96 0 0 0 .224-.08c.08-.034.16-.064.242-.091a.997.997 0 0 1 .239-.057.4.4 0 0 1 .404.197c.057.09.081.184.072.283a.568.568 0 0 1-.121.29 1.17 1.17 0 0 1-.31.269zM10.256 2.661a.826.826 0 0 1 .391-.074c.126.006.241.05.344.131.105.08.193.201.263.363l.42.972-.226.098-.41-.949c-.076-.176-.178-.29-.306-.34-.127-.054-.269-.046-.429.023a.704.704 0 0 0-.281.208.531.531 0 0 0-.114.295.756.756 0 0 0 .07.355l.38.879-.226.098-1.021-2.364.226-.098.497 1.15-.082-.067a.66.66 0 0 1 .132-.394.863.863 0 0 1 .372-.285zM12.951 3.707a.967.967 0 0 1-.49-.004.906.906 0 0 1-.627-.685c-.042-.178-.04-.344.006-.497s.128-.285.245-.394a.944.944 0 0 1 .435-.225.945.945 0 0 1 .493.004.837.837 0 0 1 .396.241.934.934 0 0 1 .23.441.95.95 0 0 1-.006.497.867.867 0 0 1-.244.397.966.966 0 0 1-.438.226zm-.051-.213a.704.704 0 0 0 .321-.166.643.643 0 0 0 .175-.299.76.76 0 0 0 .001-.385.755.755 0 0 0-.175-.344.62.62 0 0 0-.29-.184c-.113-.035-.232-.037-.358-.007s-.232.086-.317.168c-.086.08-.145.179-.179.296s-.034.246-.001.385a.765.765 0 0 0 .175.344.66.66 0 0 0 .294.187.684.684 0 0 0 .354.005zM15.192 3.363a.85.85 0 0 1-.433-.081.814.814 0 0 1-.324-.296c-.082-.134-.13-.3-.142-.499s.014-.368.08-.509c.065-.143.159-.254.282-.334s.264-.124.423-.134a.91.91 0 0 1 .471.089.828.828 0 0 1 .346.305.96.96 0 0 1 .147.474c.011.185-.018.349-.088.492s-.172.259-.305.346a.906.906 0 0 1-.457.146zm-.898.713-.154-2.49.236-.015.034.547-.002.365.057.365.075 1.212-.246.015zm.867-.93a.691.691 0 0 0 .341-.108.655.655 0 0 0 .227-.264c.053-.112.076-.239.067-.38s-.046-.263-.113-.365a.658.658 0 0 0-.61-.303.655.655 0 0 0-.571.376c-.051.11-.072.235-.064.376s.045.264.11.369a.658.658 0 0 0 .258.234.712.712 0 0 0 .355.065zM18.801 1.751a.828.828 0 0 1 .365.159.587.587 0 0 1 .21.302.888.888 0 0 1 .012.448l-.202 1.039-.242-.047.198-1.015c.037-.188.017-.34-.06-.454-.074-.116-.196-.19-.367-.223a.701.701 0 0 0-.349.013.531.531 0 0 0-.261.179.759.759 0 0 0-.143.333l-.183.94-.242-.047.348-1.788.232.045-.096.49-.02-.099a.653.653 0 0 1 .331-.25.87.87 0 0 1 .468-.026zM20.456 4.142a.964.964 0 0 1-.402-.28.896.896 0 0 1-.13-.92c.065-.171.161-.306.286-.407s.267-.163.424-.186a.941.941 0 0 1 .486.06.967.967 0 0 1 .405.282.843.843 0 0 1 .191.423.934.934 0 0 1-.06.494.96.96 0 0 1-.286.407.87.87 0 0 1-.426.19.972.972 0 0 1-.489-.061zm.079-.204a.704.704 0 0 0 .358.045.643.643 0 0 0 .313-.147.767.767 0 0 0 .219-.318.753.753 0 0 0 .05-.382.62.62 0 0 0-.135-.316c-.073-.093-.171-.162-.292-.209a.66.66 0 0 0-.671.103.75.75 0 0 0-.218.318.758.758 0 0 0-.05.382.663.663 0 0 0 .137.32c.074.09.171.158.29.204zM22.066 4.828l.391-1.907.2.126-.374 1.762-.091-.057 1.445-1.086.179.113-.365 1.768-.091-.057 1.439-1.09.191.12-1.556 1.172-.197-.124.332-1.67.062.039-1.368 1.016-.197-.124zM25.095 7.18a1.424 1.424 0 0 1-.251-.351.962.962 0 0 1-.102-.34l.217-.055a1.113 1.113 0 0 0 .303.609c.12.125.226.196.318.214a.261.261 0 0 0 .237-.069.197.197 0 0 0 .067-.156.384.384 0 0 0-.053-.18c-.033-.064-.075-.132-.124-.203s-.097-.144-.143-.219a1.005 1.005 0 0 1-.101-.22.482.482 0 0 1-.011-.226.441.441 0 0 1 .136-.218c.072-.069.155-.111.25-.125s.195.001.301.047a.992.992 0 0 1 .324.237c.082.085.152.181.211.288.06.106.099.204.115.294l-.217.06a.78.78 0 0 0-.096-.269 1.042 1.042 0 0 0-.165-.226c-.114-.118-.219-.186-.315-.202a.255.255 0 0 0-.234.067.212.212 0 0 0-.074.158.466.466 0 0 0 .051.187c.035.066.076.134.124.203.05.071.096.144.138.218a.971.971 0 0 1 .104.223.39.39 0 0 1-.11.435.448.448 0 0 1-.263.128.565.565 0 0 1-.308-.06 1.164 1.164 0 0 1-.327-.249zM27.897 7.66a.838.838 0 0 1 .153.368.583.583 0 0 1-.058.363.875.875 0 0 1-.301.331l-.865.61-.142-.201.845-.596c.157-.111.247-.234.27-.369.027-.135-.01-.273-.11-.415a.704.704 0 0 0-.261-.232.534.534 0 0 0-.312-.051.747.747 0 0 0-.333.142L26 8.162l-.142-.201 2.104-1.484.142.201-1.024.722.049-.094a.656.656 0 0 1 .413.049c.136.06.254.162.355.305zM27.442 10.54a.958.958 0 0 1-.096-.48.903.903 0 0 1 .541-.755c.165-.078.328-.11.488-.096s.305.067.436.159c.13.092.233.218.31.38.077.163.11.324.098.483a.842.842 0 0 1-.154.437.945.945 0 0 1-.384.316.952.952 0 0 1-.488.096.871.871 0 0 1-.439-.157.97.97 0 0 1-.311-.383zm.198-.093a.692.692 0 0 0 .228.28.643.643 0 0 0 .328.11.76.76 0 0 0 .377-.078.75.75 0 0 0 .301-.242.66.66 0 0 0 .053-.674.672.672 0 0 0-.23-.275c-.096-.067-.205-.105-.327-.114s-.248.017-.377.078a.75.75 0 0 0-.3.242.661.661 0 0 0-.122.326.685.685 0 0 0 .068.348zM28.235 12.664a.844.844 0 0 1-.009-.44.826.826 0 0 1 .223-.378c.114-.108.267-.189.459-.241s.363-.062.515-.026c.153.035.282.104.384.207s.176.232.218.386a.923.923 0 0 1 .01.48.822.822 0 0 1-.228.401.966.966 0 0 1-.434.242c-.178.049-.345.054-.5.015s-.288-.115-.401-.228a.917.917 0 0 1-.237-.417zm-.882-.733 2.406-.662.062.227-.529.145-.358.073-.345.131-1.171.322-.065-.238zm1.088.659a.687.687 0 0 0 .176.312.669.669 0 0 0 .305.168c.121.029.249.025.385-.012s.248-.099.334-.185a.66.66 0 0 0 .172-.658.679.679 0 0 0-.18-.314.669.669 0 0 0-.305-.168c-.118-.028-.245-.023-.381.015s-.249.098-.338.183a.66.66 0 0 0-.177.3.715.715 0 0 0 .009.361z"/>
    </symbol>
    <symbol id="icon-blog-right" viewBox="0 0 49 32">
        <path stroke-linejoin="miter" stroke-linecap="butt" stroke-miterlimit="4" stroke-width="0.5" d="M31.75 16c0 8.698-7.052 15.75-15.75 15.75s-15.75-7.052-15.75-15.75c0-8.698 7.051-15.75 15.75-15.75s15.75 7.051 15.75 15.75z"></path>
        <path d="M48.177 16.177c0.098-0.098 0.098-0.256 0-0.354l-1.591-1.591c-0.098-0.098-0.256-0.098-0.354 0s-0.098 0.256 0 0.354l1.414 1.414-1.414 1.414c-0.098 0.098-0.098 0.256 0 0.354s0.256 0.098 0.354 0l1.591-1.591zM15 16.25h33v-0.5h-33v0.5z"></path>
    </symbol>
    <symbol id="icon-blog-left" viewBox="0 0 49 32">
        <path stroke-linejoin="miter" stroke-linecap="butt" stroke-miterlimit="4" stroke-width="0.5" d="M48.25 16c0 8.698-7.051 15.75-15.75 15.75s-15.75-7.052-15.75-15.75c0-8.698 7.052-15.75 15.75-15.75s15.75 7.051 15.75 15.75z"></path>
        <path d="M0.323 15.823c-0.098 0.098-0.098 0.256 0 0.354l1.591 1.591c0.098 0.098 0.256 0.098 0.354 0s0.098-0.256 0-0.354l-1.414-1.414 1.414-1.414c0.098-0.098 0.098-0.256 0-0.354s-0.256-0.098-0.354 0l-1.591 1.591zM0.5 16.25h33v-0.5h-33v0.5z"></path>
    </symbol>

    <symbol id="icon-facebook" viewBox="0 0 32 32">
        <path stroke-linecap="round" stroke-linejoin="round" stroke-width="2.286" d="M24 2.667h-4a6.67 6.67 0 0 0-6.667 6.667v4h-4v5.333h4v10.667h5.333V18.667h4l1.333-5.333h-5.333v-4A1.333 1.333 0 0 1 19.999 8h4V2.667z"/>
    </symbol>
    <symbol id="icon-instagram" viewBox="0 0 32 32">
        <path stroke-linecap="round" stroke-linejoin="round" stroke-width="2.286" d="M22.666 2.667H9.333a6.667 6.667 0 0 0-6.667 6.667v13.333a6.667 6.667 0 0 0 6.667 6.667h13.333a6.667 6.667 0 0 0 6.667-6.667V9.334a6.667 6.667 0 0 0-6.667-6.667z"/>
        <path stroke-linecap="round" stroke-linejoin="round" stroke-width="2.286" d="M21.333 15.16a5.336 5.336 0 0 1-6.123 6.049 5.33 5.33 0 0 1-3.916-7.663 5.33 5.33 0 0 1 5.546-2.878 5.334 5.334 0 0 1 4.493 4.493zM23.334 8.667h.013"/>
    </symbol>
    </defs>
</svg>